<svg id="svg" version="1.1" xmlns="http://www.w3.org/2000/svg" xmlns:xlink="http://www.w3.org/1999/xlink" width="400" height="400" viewBox="0, 0, 400,400"><g id="svgg"><path id="path0" d="M10.998 132.200 C 10.652 133.300,10.210 134.560,10.016 135.000 C 9.230 136.783,8.400 139.811,8.400 140.895 C 8.400 141.561,8.231 141.943,8.000 141.800 C 7.762 141.653,7.600 142.121,7.600 142.953 C 7.600 143.723,7.420 144.464,7.200 144.600 C 6.980 144.736,6.800 145.377,6.800 146.024 C 6.800 146.671,6.620 147.200,6.400 147.200 C 6.180 147.200,6.000 147.920,6.000 148.800 C 6.000 149.680,5.820 150.400,5.600 150.400 C 5.380 150.400,5.200 151.019,5.200 151.776 C 5.200 152.533,5.020 153.264,4.800 153.400 C 4.580 153.536,4.400 154.357,4.400 155.224 C 4.400 156.091,4.220 156.800,4.000 156.800 C 3.780 156.800,3.600 157.700,3.600 158.800 C 3.600 159.900,3.420 160.800,3.200 160.800 C 2.980 160.800,2.800 161.700,2.800 162.800 C 2.800 163.900,2.635 164.800,2.434 164.800 C 2.233 164.800,1.967 165.925,1.844 167.300 C 1.273 173.670,1.133 174.661,0.682 175.561 C -0.030 176.979,-0.013 224.063,0.700 224.300 C 1.035 224.412,1.200 225.371,1.200 227.210 C 1.200 228.718,1.380 230.064,1.600 230.200 C 1.820 230.336,2.000 231.517,2.000 232.824 C 2.000 234.141,2.178 235.200,2.400 235.200 C 2.620 235.200,2.800 236.100,2.800 237.200 C 2.800 238.300,2.980 239.200,3.200 239.200 C 3.420 239.200,3.600 240.100,3.600 241.200 C 3.600 242.300,3.780 243.200,4.000 243.200 C 4.220 243.200,4.400 243.909,4.400 244.776 C 4.400 245.643,4.580 246.464,4.800 246.600 C 5.020 246.736,5.200 247.467,5.200 248.224 C 5.200 248.981,5.380 249.600,5.600 249.600 C 5.820 249.600,6.000 250.320,6.000 251.200 C 6.000 252.080,6.180 252.800,6.400 252.800 C 6.620 252.800,6.800 253.430,6.800 254.200 C 6.800 254.970,6.980 255.600,7.200 255.600 C 7.420 255.600,7.600 256.129,7.600 256.776 C 7.600 257.423,7.780 258.064,8.000 258.200 C 8.220 258.336,8.400 258.857,8.400 259.357 C 8.400 259.857,8.524 260.390,8.675 260.541 C 8.826 260.693,9.001 261.128,9.064 261.508 C 9.445 263.800,9.734 264.835,10.046 265.029 C 10.241 265.149,10.400 265.651,10.400 266.144 C 10.400 266.637,10.563 267.211,10.761 267.420 C 10.960 267.629,11.187 268.160,11.267 268.600 C 11.411 269.398,11.804 269.400,199.892 269.600 L 388.373 269.800 389.005 267.800 C 389.353 266.700,389.746 265.530,389.879 265.200 C 390.012 264.870,390.187 264.254,390.268 263.831 C 390.349 263.409,390.599 262.843,390.822 262.573 C 391.045 262.304,391.192 261.930,391.148 261.742 C 391.036 261.258,391.578 259.131,392.024 258.305 C 392.231 257.923,392.400 257.158,392.400 256.605 C 392.400 256.052,392.580 255.600,392.800 255.600 C 393.020 255.600,393.200 255.071,393.200 254.424 C 393.200 253.777,393.380 253.136,393.600 253.000 C 393.820 252.864,394.000 252.043,394.000 251.176 C 394.000 250.309,394.180 249.600,394.400 249.600 C 394.620 249.600,394.800 248.981,394.800 248.224 C 394.800 247.467,394.980 246.736,395.200 246.600 C 395.420 246.464,395.600 245.643,395.600 244.776 C 395.600 243.909,395.780 243.200,396.000 243.200 C 396.220 243.200,396.400 242.300,396.400 241.200 C 396.400 240.100,396.580 239.200,396.800 239.200 C 397.020 239.200,397.200 238.300,397.200 237.200 C 397.200 236.100,397.380 235.200,397.600 235.200 C 397.820 235.200,398.000 234.221,398.000 233.024 C 398.000 231.827,398.180 230.736,398.400 230.600 C 398.620 230.464,398.800 229.139,398.800 227.656 C 398.800 226.033,398.999 224.761,399.300 224.460 C 399.689 224.071,399.800 218.635,399.800 200.000 C 399.800 181.365,399.689 175.929,399.300 175.540 C 398.999 175.239,398.800 173.967,398.800 172.344 C 398.800 170.861,398.620 169.536,398.400 169.400 C 398.180 169.264,398.000 168.173,398.000 166.976 C 398.000 165.779,397.820 164.800,397.600 164.800 C 397.380 164.800,397.200 163.911,397.200 162.824 C 397.200 161.737,397.020 160.736,396.800 160.600 C 396.580 160.464,396.400 159.553,396.400 158.576 C 396.400 157.599,396.220 156.800,396.000 156.800 C 395.780 156.800,395.600 156.091,395.600 155.224 C 395.600 154.357,395.420 153.536,395.200 153.400 C 394.980 153.264,394.800 152.533,394.800 151.776 C 394.800 151.019,394.620 150.400,394.400 150.400 C 394.180 150.400,394.000 149.691,394.000 148.824 C 394.000 147.957,393.820 147.136,393.600 147.000 C 393.380 146.864,393.200 146.223,393.200 145.576 C 393.200 144.929,393.020 144.400,392.800 144.400 C 392.580 144.400,392.400 143.948,392.400 143.395 C 392.400 142.842,392.231 142.077,392.024 141.695 C 391.593 140.898,391.035 138.751,391.138 138.288 C 391.177 138.116,390.932 137.441,390.594 136.788 C 390.256 136.135,390.096 135.600,390.239 135.600 C 390.381 135.600,390.325 135.375,390.115 135.100 C 389.904 134.825,389.429 133.610,389.060 132.400 L 388.388 130.200 200.008 130.200 L 11.627 130.200 10.998 132.200 " stroke="none" fill="#fcdc44" fill-rule="evenodd"></path><path id="path1" d="M16.200 130.000 C 13.780 130.133,96.490 130.246,200.000 130.251 C 303.510 130.256,386.040 130.136,383.400 129.984 C 377.517 129.646,22.356 129.662,16.200 130.000 M16.600 270.016 C 22.871 270.376,377.129 270.376,383.400 270.016 C 386.040 269.864,303.510 269.740,200.000 269.740 C 96.490 269.740,13.960 269.864,16.600 270.016 " stroke="none" fill="#dc0c2c" fill-rule="evenodd"></path><path id="path2" d="M180.491 0.318 C 179.532 0.390,178.886 0.615,179.019 0.830 C 179.149 1.041,179.451 1.092,179.689 0.945 C 179.957 0.779,180.008 0.864,179.822 1.164 C 179.593 1.535,179.355 1.502,178.829 1.026 C 178.073 0.342,175.587 0.178,174.980 0.772 C 174.771 0.977,173.430 1.255,172.000 1.390 C 165.889 1.967,164.975 2.112,164.242 2.626 C 163.728 2.986,162.889 3.087,161.735 2.929 C 160.567 2.769,160.000 2.840,160.000 3.146 C 160.000 3.409,159.328 3.600,158.400 3.600 C 157.382 3.600,156.800 3.783,156.800 4.103 C 156.800 4.455,156.248 4.562,154.959 4.459 C 153.288 4.326,153.141 4.385,153.365 5.090 C 153.533 5.619,153.424 5.867,153.023 5.867 C 152.700 5.867,152.520 5.729,152.624 5.561 C 152.728 5.392,152.109 5.282,151.247 5.316 C 149.949 5.368,149.705 5.506,149.824 6.125 C 149.928 6.666,149.835 6.764,149.484 6.480 C 149.218 6.264,148.460 6.094,147.800 6.102 C 147.140 6.110,146.825 6.195,147.100 6.291 C 148.175 6.668,147.519 7.048,146.000 6.928 C 145.117 6.858,144.400 6.981,144.400 7.201 C 144.400 7.420,143.699 7.600,142.843 7.600 C 141.800 7.600,141.206 7.806,141.046 8.225 C 140.914 8.569,140.624 8.739,140.403 8.602 C 140.181 8.465,140.000 8.543,140.000 8.776 C 140.000 9.009,139.809 9.200,139.576 9.200 C 139.343 9.200,139.276 9.001,139.426 8.759 C 139.576 8.516,139.188 8.651,138.565 9.059 C 137.849 9.527,137.556 9.597,137.771 9.248 C 137.964 8.935,137.958 8.767,137.756 8.861 C 135.927 9.708,135.079 10.016,133.000 10.587 C 131.680 10.950,130.287 11.416,129.905 11.623 C 129.523 11.831,128.938 12.000,128.605 12.000 C 128.272 12.000,128.000 12.180,128.000 12.400 C 128.000 12.620,127.550 12.800,127.000 12.800 C 126.450 12.800,126.000 12.980,126.000 13.200 C 126.000 13.420,125.571 13.600,125.047 13.600 C 124.163 13.600,123.397 14.717,123.573 15.749 C 123.606 15.941,123.367 15.996,123.042 15.872 C 122.717 15.747,122.357 15.860,122.242 16.122 C 122.126 16.385,122.127 16.060,122.243 15.400 C 122.426 14.364,122.383 14.287,121.927 14.840 C 121.637 15.192,121.266 15.511,121.102 15.549 C 120.938 15.588,120.260 15.728,119.596 15.861 C 118.695 16.041,118.491 16.228,118.797 16.596 C 119.109 16.972,118.967 17.045,118.205 16.899 C 116.880 16.645,114.067 17.940,114.847 18.445 C 115.262 18.713,115.200 18.777,114.600 18.701 C 113.176 18.521,108.399 20.894,108.140 21.911 C 107.956 22.634,107.794 22.727,107.354 22.362 C 106.922 22.003,106.800 22.040,106.800 22.527 C 106.800 22.871,106.622 23.263,106.405 23.397 C 106.178 23.537,106.111 23.377,106.247 23.021 C 106.402 22.618,106.259 22.400,105.843 22.400 C 105.489 22.400,105.200 22.580,105.200 22.800 C 105.200 23.020,104.964 23.200,104.675 23.200 C 104.387 23.200,103.764 23.560,103.292 24.000 C 102.820 24.440,102.282 24.800,102.096 24.800 C 101.503 24.800,99.606 25.789,99.603 26.100 C 99.599 26.531,100.486 26.289,101.138 25.681 C 101.445 25.395,101.789 25.256,101.904 25.371 C 102.584 26.051,100.179 27.118,99.432 26.468 C 98.724 25.852,98.683 25.851,98.905 26.461 C 99.233 27.364,98.845 27.652,97.947 27.172 C 97.536 26.952,97.200 26.928,97.200 27.118 C 97.200 27.309,96.744 27.709,96.186 28.007 C 95.571 28.336,95.259 28.776,95.392 29.123 C 95.551 29.539,95.390 29.638,94.806 29.486 C 94.363 29.370,93.900 29.438,93.777 29.638 C 93.654 29.837,93.158 30.003,92.676 30.006 C 91.988 30.011,91.925 30.091,92.381 30.380 C 92.700 30.582,93.105 30.658,93.281 30.550 C 93.456 30.442,93.600 30.558,93.600 30.808 C 93.600 31.106,93.185 31.172,92.400 31.000 C 91.645 30.834,91.200 30.897,91.200 31.168 C 91.200 31.406,90.964 31.600,90.675 31.600 C 90.387 31.600,89.802 31.915,89.375 32.300 C 88.949 32.685,88.105 33.255,87.500 33.568 C 86.895 33.880,86.400 34.285,86.400 34.468 C 86.400 34.650,86.080 34.800,85.688 34.800 C 85.297 34.800,84.717 35.160,84.400 35.600 C 84.083 36.040,83.620 36.400,83.371 36.400 C 83.122 36.400,82.383 36.895,81.728 37.500 C 81.074 38.105,80.192 38.808,79.769 39.063 C 79.346 39.317,79.045 39.722,79.100 39.963 C 79.155 40.203,79.065 40.379,78.900 40.353 C 78.008 40.212,77.539 40.465,77.737 40.980 C 77.961 41.565,76.902 42.137,75.200 42.350 C 74.980 42.377,74.800 42.681,74.800 43.024 C 74.800 43.367,74.620 43.536,74.400 43.400 C 74.180 43.264,74.000 43.433,74.000 43.776 C 74.000 44.119,73.865 44.364,73.700 44.321 C 72.919 44.114,71.558 44.914,71.766 45.457 C 71.890 45.778,71.847 45.952,71.670 45.844 C 71.020 45.441,69.119 47.516,69.382 48.343 C 69.522 48.784,69.421 49.263,69.154 49.428 C 68.852 49.615,68.782 49.554,68.962 49.262 C 69.469 48.442,68.823 47.982,67.904 48.508 C 66.425 49.354,64.977 50.926,65.511 51.104 C 65.780 51.193,66.000 51.454,66.000 51.682 C 66.000 51.960,65.825 51.953,65.475 51.662 C 64.911 51.194,59.367 56.034,59.880 56.547 C 60.019 56.686,59.845 56.800,59.494 56.800 C 59.142 56.800,58.743 57.151,58.606 57.580 C 58.470 58.008,58.008 58.470,57.580 58.606 C 57.151 58.743,56.800 59.122,56.800 59.451 C 56.800 59.779,56.665 59.965,56.500 59.866 C 56.109 59.629,55.174 60.640,55.491 60.957 C 55.624 61.091,55.506 61.200,55.227 61.200 C 54.486 61.200,52.358 63.609,52.663 64.102 C 52.806 64.334,52.745 64.413,52.527 64.279 C 52.123 64.029,49.200 66.530,49.200 67.127 C 49.200 67.308,48.255 68.463,47.100 69.693 C 44.290 72.687,43.874 73.416,44.405 74.409 C 44.663 74.890,44.677 75.200,44.443 75.200 C 44.231 75.200,43.742 75.515,43.356 75.900 C 42.689 76.567,42.667 76.557,42.890 75.700 C 43.019 75.205,42.962 74.800,42.763 74.800 C 42.443 74.800,42.373 75.001,42.410 75.810 C 42.415 75.926,41.992 76.421,41.471 76.910 C 40.949 77.400,40.553 78.175,40.590 78.633 C 40.626 79.092,40.427 79.467,40.146 79.467 C 39.865 79.467,39.752 79.272,39.894 79.033 C 40.037 78.795,39.849 78.847,39.477 79.149 C 39.105 79.451,38.800 80.002,38.800 80.373 C 38.800 80.744,38.517 81.396,38.170 81.824 C 37.824 82.251,37.655 82.375,37.794 82.100 C 37.933 81.825,37.885 81.600,37.688 81.600 C 37.225 81.600,36.384 83.437,36.545 84.095 C 36.613 84.373,36.593 84.465,36.501 84.300 C 36.171 83.709,35.519 84.013,35.762 84.645 C 35.941 85.113,35.838 85.223,35.384 85.049 C 35.040 84.917,34.861 84.975,34.987 85.179 C 35.113 85.382,34.762 86.002,34.208 86.556 C 33.653 87.110,33.200 87.802,33.200 88.094 C 33.200 88.385,32.840 88.883,32.400 89.200 C 31.960 89.517,31.600 90.057,31.600 90.400 C 31.600 90.743,31.240 91.283,30.800 91.600 C 30.360 91.917,30.000 92.497,30.000 92.888 C 30.000 93.280,29.820 93.600,29.600 93.600 C 29.380 93.600,29.200 93.881,29.200 94.224 C 29.200 94.567,29.380 94.736,29.600 94.600 C 29.820 94.464,30.000 94.543,30.000 94.776 C 30.000 95.009,29.640 95.200,29.200 95.200 C 28.453 95.200,28.194 95.647,28.386 96.600 C 28.430 96.820,28.340 96.874,28.186 96.719 C 28.031 96.565,27.656 96.687,27.352 96.990 C 26.604 97.739,26.658 98.018,27.500 97.762 C 27.885 97.645,27.700 97.839,27.088 98.194 C 26.477 98.548,26.082 99.009,26.212 99.219 C 26.341 99.429,26.285 99.600,26.088 99.600 C 25.588 99.600,24.800 101.439,24.800 102.605 C 24.800 103.162,24.461 103.753,24.000 104.000 C 23.560 104.235,23.200 104.702,23.200 105.038 C 23.200 105.373,23.016 105.533,22.790 105.394 C 22.565 105.255,22.427 105.289,22.485 105.470 C 22.648 105.981,21.547 108.400,21.151 108.400 C 20.609 108.400,20.736 109.904,21.300 110.163 C 21.575 110.289,21.440 110.306,21.000 110.201 C 20.122 109.991,18.133 113.644,18.660 114.497 C 18.816 114.750,18.734 114.807,18.459 114.636 C 18.196 114.474,17.909 114.621,17.797 114.975 C 17.689 115.319,17.469 115.915,17.310 116.300 C 17.150 116.685,17.015 117.703,17.010 118.562 C 17.003 119.604,16.800 120.181,16.400 120.293 C 16.034 120.395,15.961 120.332,16.213 120.130 C 16.692 119.748,16.733 119.000,16.300 118.567 C 16.135 118.402,16.000 118.646,16.000 119.110 C 16.000 119.573,15.820 120.064,15.600 120.200 C 14.929 120.615,15.155 121.189,15.900 120.962 C 16.285 120.845,16.105 121.036,15.500 121.387 C 14.326 122.068,14.084 123.108,14.900 123.965 C 15.308 124.394,15.225 124.437,14.445 124.201 C 13.583 123.939,13.509 124.012,13.687 124.943 C 13.796 125.511,13.729 125.880,13.539 125.763 C 13.350 125.645,13.133 125.786,13.058 126.075 C 12.983 126.364,12.730 127.185,12.495 127.900 C 12.179 128.865,12.189 129.207,12.535 129.228 C 12.791 129.244,12.692 129.379,12.315 129.528 C 11.938 129.678,96.375 129.800,199.951 129.800 C 377.996 129.800,388.263 129.762,388.093 129.111 C 387.993 128.732,387.451 127.960,386.888 127.397 C 386.250 126.759,386.116 126.470,386.532 126.629 C 386.908 126.774,387.200 126.692,387.200 126.443 C 387.200 126.199,387.020 126.000,386.800 126.000 C 386.580 126.000,386.400 125.550,386.400 125.000 C 386.400 124.450,386.243 124.000,386.050 124.000 C 385.858 124.000,385.590 123.448,385.455 122.773 C 385.320 122.099,385.039 121.653,384.830 121.782 C 384.613 121.916,384.528 121.585,384.633 121.008 C 384.733 120.454,384.632 120.000,384.408 120.000 C 384.184 120.000,384.000 119.621,384.000 119.157 C 384.000 118.616,383.808 118.388,383.462 118.521 C 383.083 118.666,382.976 118.458,383.100 117.812 C 383.218 117.194,382.994 116.701,382.409 116.291 C 381.933 115.958,381.732 115.621,381.962 115.543 C 382.207 115.459,381.953 114.540,381.344 113.310 C 380.409 111.423,380.226 111.261,379.454 111.632 C 378.675 112.008,378.661 111.994,379.300 111.478 C 380.149 110.791,380.203 110.053,379.425 109.754 C 379.109 109.633,378.948 109.279,379.068 108.967 C 379.188 108.655,379.130 108.400,378.940 108.400 C 378.547 108.400,377.370 105.971,377.521 105.470 C 377.575 105.289,377.466 105.236,377.277 105.352 C 377.089 105.469,376.691 104.942,376.393 104.182 C 376.095 103.422,375.704 102.800,375.525 102.800 C 375.346 102.800,375.200 102.421,375.200 101.957 C 375.200 101.340,375.024 101.182,374.543 101.366 C 374.014 101.570,373.978 101.509,374.357 101.052 C 374.724 100.610,374.689 100.346,374.200 99.857 C 373.854 99.511,373.549 99.087,373.522 98.914 C 373.365 97.910,373.069 97.200,372.809 97.200 C 372.645 97.200,372.090 96.405,371.575 95.434 C 370.756 93.891,370.577 93.752,370.157 94.327 C 369.752 94.880,369.711 94.801,369.897 93.827 C 370.071 92.915,369.992 92.717,369.526 92.896 C 369.181 93.029,368.933 92.896,368.933 92.579 C 368.933 92.280,369.081 92.127,369.262 92.238 C 369.443 92.350,369.489 92.176,369.364 91.852 C 369.240 91.527,368.871 91.159,368.544 91.034 C 368.217 90.908,368.067 90.615,368.211 90.382 C 368.356 90.148,368.141 89.652,367.734 89.279 C 367.327 88.905,366.740 88.105,366.430 87.500 C 366.119 86.895,365.715 86.400,365.532 86.400 C 365.350 86.400,365.200 86.175,365.200 85.900 C 365.199 85.625,364.749 84.877,364.200 84.238 C 363.650 83.599,363.197 82.969,363.194 82.838 C 363.190 82.707,362.650 81.991,361.994 81.246 C 361.337 80.501,360.800 79.764,360.800 79.607 C 360.800 79.105,359.323 77.600,358.829 77.600 C 358.567 77.600,358.443 77.454,358.554 77.275 C 358.826 76.834,357.410 74.724,357.070 75.063 C 356.921 75.212,356.800 75.125,356.800 74.871 C 356.800 74.210,355.519 72.803,355.133 73.041 C 354.955 73.151,354.892 73.007,354.993 72.721 C 355.095 72.434,354.741 71.705,354.208 71.100 C 353.268 70.034,352.498 69.588,353.000 70.400 C 353.136 70.620,353.037 70.800,352.781 70.800 C 352.524 70.800,352.419 70.527,352.547 70.193 C 352.775 69.599,352.418 69.037,350.400 66.822 C 349.850 66.218,349.042 65.246,348.605 64.662 C 347.736 63.501,346.973 63.232,347.353 64.221 C 347.498 64.599,347.425 64.739,347.168 64.580 C 346.936 64.437,346.845 64.059,346.967 63.741 C 347.241 63.029,344.561 60.252,343.861 60.521 C 343.573 60.632,343.338 60.366,343.302 59.892 C 343.231 58.950,342.440 58.320,341.679 58.600 C 341.393 58.705,341.269 58.611,341.405 58.392 C 341.903 57.586,340.213 55.989,339.656 56.739 C 339.230 57.314,339.191 57.277,339.359 56.448 C 339.577 55.374,338.654 54.196,337.941 54.636 C 337.678 54.799,337.583 54.750,337.723 54.524 C 338.018 54.048,336.157 52.007,333.426 49.812 C 332.340 48.939,330.873 47.646,330.166 46.939 C 329.448 46.221,328.554 45.705,328.140 45.770 C 327.733 45.833,327.625 45.808,327.900 45.713 C 328.583 45.478,328.533 44.800,327.833 44.800 C 327.522 44.800,327.205 44.616,327.131 44.392 C 327.056 44.167,326.420 43.942,325.719 43.892 C 324.914 43.834,324.583 43.660,324.821 43.420 C 325.353 42.886,325.293 42.302,324.725 42.492 C 324.464 42.579,323.366 41.784,322.285 40.725 C 321.204 39.666,320.149 38.800,319.941 38.800 C 319.734 38.800,319.114 38.350,318.564 37.800 C 318.014 37.250,317.405 36.800,317.210 36.800 C 317.016 36.800,316.581 36.524,316.245 36.187 C 315.908 35.850,315.040 35.318,314.316 35.003 C 313.592 34.689,313.148 34.424,313.329 34.416 C 313.932 34.387,312.467 33.200,311.829 33.200 C 311.483 33.200,311.200 33.020,311.200 32.800 C 311.200 32.159,310.335 32.338,309.757 33.100 C 309.463 33.486,309.220 33.587,309.213 33.324 C 309.206 33.062,309.380 32.736,309.600 32.600 C 310.205 32.226,310.079 31.600,309.400 31.600 C 309.070 31.600,308.800 31.401,308.800 31.157 C 308.800 30.914,308.539 30.814,308.220 30.937 C 307.833 31.085,307.715 30.967,307.863 30.580 C 308.023 30.163,307.786 30.000,307.019 30.000 C 306.433 30.000,306.046 29.850,306.159 29.666 C 306.400 29.277,303.637 27.815,302.906 27.945 C 302.623 27.995,302.508 27.783,302.637 27.448 C 302.802 27.018,302.599 26.892,301.866 26.973 C 301.101 27.057,300.923 26.934,301.099 26.441 C 301.225 26.089,301.187 25.926,301.016 26.081 C 300.845 26.235,300.434 26.092,300.104 25.761 C 299.774 25.431,298.985 25.057,298.352 24.930 C 297.718 24.804,297.200 24.563,297.200 24.396 C 297.200 24.106,294.512 22.647,293.920 22.615 C 293.766 22.607,293.415 22.375,293.140 22.100 C 292.865 21.825,292.421 21.600,292.153 21.600 C 291.886 21.600,291.607 21.465,291.533 21.300 C 291.460 21.135,290.323 20.460,289.008 19.800 C 285.807 18.195,285.703 18.160,286.526 18.983 C 287.338 19.796,287.221 20.137,286.257 19.767 C 285.896 19.628,285.600 19.168,285.600 18.745 C 285.600 18.321,285.285 17.877,284.900 17.758 C 284.515 17.639,283.887 17.375,283.505 17.171 C 282.492 16.630,282.082 16.712,281.876 17.500 C 281.763 17.931,281.675 17.777,281.646 17.100 C 281.612 16.282,281.395 16.000,280.800 16.000 C 280.360 16.000,280.000 15.858,280.000 15.685 C 280.000 15.512,279.636 15.343,279.191 15.309 C 278.670 15.270,278.480 15.417,278.655 15.724 C 278.813 15.998,278.774 16.059,278.564 15.867 C 278.364 15.683,278.200 15.325,278.200 15.071 C 278.200 14.816,277.750 14.499,277.200 14.365 C 275.333 13.911,274.400 13.508,274.400 13.153 C 274.400 12.959,274.038 12.800,273.595 12.800 C 273.152 12.800,272.477 12.627,272.095 12.415 C 271.169 11.902,265.559 9.928,264.800 9.848 C 264.470 9.813,263.783 9.551,263.274 9.265 C 262.555 8.860,262.221 8.851,261.774 9.221 C 261.315 9.602,261.200 9.568,261.200 9.049 C 261.200 8.557,260.807 8.400,259.576 8.400 C 258.596 8.400,258.051 8.242,258.200 8.000 C 258.347 7.762,257.871 7.600,257.024 7.600 C 256.241 7.600,255.600 7.420,255.600 7.200 C 255.600 6.645,254.711 6.878,254.072 7.600 C 253.780 7.930,253.660 7.967,253.805 7.682 C 254.255 6.800,253.183 6.000,251.551 6.000 C 250.669 6.000,250.000 5.806,250.000 5.550 C 250.000 5.262,249.562 5.188,248.785 5.343 C 247.913 5.517,247.505 5.418,247.342 4.993 C 247.189 4.595,246.544 4.400,245.381 4.400 C 244.427 4.400,243.536 4.220,243.400 4.000 C 243.264 3.780,242.848 3.613,242.476 3.628 C 241.919 3.651,241.937 3.710,242.579 3.961 C 243.322 4.252,243.317 4.276,242.479 4.495 C 241.860 4.657,241.600 4.546,241.600 4.120 C 241.600 3.739,241.371 3.602,240.985 3.750 C 240.635 3.885,240.272 3.731,240.142 3.393 C 239.980 2.972,239.298 2.800,237.781 2.800 C 236.607 2.800,235.531 2.612,235.390 2.383 C 235.248 2.154,234.351 2.007,233.395 2.057 C 232.440 2.106,231.420 1.955,231.129 1.720 C 230.838 1.486,229.447 1.271,228.037 1.244 C 226.627 1.216,225.277 1.039,225.037 0.851 C 224.797 0.664,223.250 0.474,221.600 0.431 C 219.950 0.388,218.193 0.253,217.695 0.132 C 216.983 -0.042,216.843 0.048,217.038 0.556 C 217.174 0.910,217.086 1.200,216.843 1.200 C 216.599 1.200,216.445 0.975,216.500 0.700 C 216.560 0.401,216.078 0.150,215.300 0.075 C 214.585 0.006,214.000 0.121,214.000 0.332 C 214.000 0.542,213.705 0.828,213.343 0.966 C 212.794 1.177,212.770 1.118,213.192 0.609 C 213.637 0.074,213.376 0.000,211.049 0.000 C 209.200 0.000,208.398 0.151,208.394 0.500 C 208.390 0.851,208.300 0.867,208.094 0.554 C 207.676 -0.079,192.311 -0.085,192.665 0.549 C 192.809 0.806,192.686 0.785,192.379 0.500 C 191.490 -0.325,187.206 -0.161,187.172 0.700 C 187.148 1.299,187.094 1.284,186.800 0.600 C 186.568 0.061,186.445 -0.004,186.422 0.400 C 186.397 0.839,186.305 0.869,186.078 0.513 C 185.783 0.048,184.609 0.007,180.491 0.318 M222.309 1.637 C 222.433 2.097,222.392 2.102,222.086 1.666 C 221.879 1.372,221.591 1.161,221.445 1.196 C 221.299 1.231,220.960 1.168,220.690 1.055 C 220.421 0.943,220.640 0.901,221.179 0.962 C 221.717 1.023,222.226 1.327,222.309 1.637 M273.774 13.558 C 273.896 13.755,273.726 14.019,273.398 14.146 C 273.035 14.285,272.800 14.144,272.800 13.787 C 272.800 13.140,273.425 12.993,273.774 13.558 M83.500 37.300 C 83.409 37.575,83.030 37.827,82.659 37.859 C 82.137 37.905,82.123 37.876,82.597 37.729 C 82.934 37.625,83.107 37.373,82.981 37.170 C 82.856 36.966,82.958 36.800,83.210 36.800 C 83.461 36.800,83.592 37.025,83.500 37.300 M320.800 39.800 C 321.144 40.215,321.159 40.400,320.849 40.400 C 320.602 40.400,320.400 40.209,320.400 39.976 C 320.400 39.743,320.232 39.656,320.028 39.783 C 319.823 39.909,319.542 39.830,319.404 39.607 C 319.006 38.962,320.248 39.135,320.800 39.800 M55.934 62.279 C 55.701 62.561,55.350 62.693,55.155 62.572 C 54.519 62.179,54.781 61.648,55.580 61.708 C 56.165 61.753,56.254 61.894,55.934 62.279 M15.724 123.324 C 15.601 123.523,15.354 123.450,15.176 123.162 C 14.998 122.874,14.953 122.475,15.076 122.276 C 15.199 122.077,15.446 122.150,15.624 122.438 C 15.802 122.726,15.847 123.125,15.724 123.324 M11.912 270.906 C 12.013 271.295,12.255 271.710,12.448 271.830 C 12.642 271.949,12.800 272.487,12.800 273.024 C 12.800 273.561,12.980 274.000,13.200 274.000 C 13.420 274.000,13.600 274.450,13.600 275.000 C 13.600 275.813,13.806 276.009,14.700 276.046 C 15.377 276.075,15.531 276.163,15.100 276.276 C 14.698 276.381,14.405 276.829,14.413 277.329 C 14.425 278.138,14.463 278.150,14.957 277.500 C 15.855 276.317,16.258 277.412,15.423 278.763 C 15.300 278.962,15.585 279.906,16.057 280.862 C 16.528 281.818,17.053 282.960,17.223 283.400 C 18.539 286.798,18.689 287.007,19.700 286.847 C 20.019 286.797,20.135 287.626,20.016 289.100 C 19.976 289.595,20.136 290.000,20.371 290.000 C 20.607 290.000,20.800 290.360,20.800 290.800 C 20.800 291.240,20.980 291.600,21.200 291.600 C 21.420 291.600,21.600 291.960,21.600 292.400 C 21.600 292.840,21.780 293.200,22.000 293.200 C 22.220 293.200,22.400 293.478,22.400 293.817 C 22.400 294.156,22.760 294.820,23.200 295.292 C 23.640 295.764,24.000 296.387,24.000 296.675 C 24.000 296.964,24.167 297.200,24.372 297.200 C 24.577 297.200,24.802 297.605,24.872 298.100 C 24.962 298.729,25.241 298.973,25.800 298.912 C 26.240 298.863,26.375 298.923,26.100 299.045 C 25.506 299.308,25.425 300.400,26.000 300.400 C 26.220 300.400,26.355 300.567,26.300 300.772 C 26.245 300.976,26.560 301.440,27.000 301.801 C 27.440 302.163,27.556 302.334,27.259 302.180 C 26.888 301.990,26.934 302.233,27.405 302.951 C 28.064 303.957,28.749 304.489,28.162 303.538 C 27.989 303.259,28.052 303.185,28.321 303.351 C 28.565 303.502,28.652 303.919,28.515 304.278 C 28.348 304.712,28.420 304.835,28.727 304.645 C 29.016 304.466,29.112 304.564,28.982 304.903 C 28.686 305.675,30.240 307.347,30.988 307.060 C 31.325 306.931,31.600 306.999,31.600 307.213 C 31.600 307.426,31.212 307.600,30.739 307.600 C 29.885 307.600,29.884 307.606,30.667 308.300 C 31.100 308.685,31.588 309.355,31.749 309.789 C 31.998 310.457,32.105 310.487,32.448 309.989 C 32.755 309.541,32.792 309.616,32.599 310.300 C 32.390 311.043,32.508 311.206,33.273 311.232 C 33.783 311.249,33.975 311.354,33.700 311.465 C 32.992 311.751,33.069 312.046,34.192 313.352 C 34.737 313.986,35.067 314.691,34.926 314.920 C 34.769 315.173,34.922 315.239,35.314 315.088 C 35.767 314.914,35.893 315.013,35.737 315.420 C 35.585 315.817,35.789 316.000,36.381 316.000 C 36.934 316.000,37.144 315.833,36.962 315.538 C 36.780 315.243,36.853 315.185,37.164 315.378 C 37.536 315.608,37.508 315.839,37.043 316.352 C 36.492 316.962,36.546 317.145,37.617 318.291 C 38.268 318.987,38.800 319.654,38.800 319.774 C 38.800 319.981,39.058 320.313,41.100 322.734 C 41.594 323.320,41.999 323.957,42.000 324.149 C 42.000 324.341,42.299 324.251,42.665 323.949 C 43.269 323.451,43.286 323.484,42.851 324.300 C 42.451 325.051,42.474 325.200,42.986 325.200 C 43.324 325.200,43.555 325.065,43.500 324.900 C 43.445 324.735,43.535 324.555,43.700 324.500 C 44.442 324.253,44.471 324.458,43.800 325.200 C 43.149 325.919,43.143 326.000,43.738 326.000 C 44.102 326.000,44.355 326.135,44.300 326.300 C 44.245 326.465,44.380 326.600,44.600 326.600 C 44.820 326.600,44.951 326.452,44.890 326.270 C 44.830 326.089,44.965 326.055,45.191 326.195 C 45.466 326.364,45.471 326.694,45.206 327.189 C 44.809 327.930,47.080 330.800,48.064 330.800 C 48.275 330.800,48.353 330.953,48.237 331.139 C 48.122 331.326,48.381 331.859,48.814 332.323 C 49.246 332.787,49.600 333.254,49.600 333.361 C 49.600 333.704,57.660 341.600,58.009 341.600 C 58.195 341.600,58.460 341.960,58.600 342.400 C 58.740 342.840,59.142 343.200,59.494 343.200 C 59.845 343.200,60.024 343.309,59.891 343.443 C 59.651 343.683,63.476 347.582,66.821 350.507 C 68.305 351.805,69.735 351.989,68.991 350.786 C 68.905 350.647,69.080 350.533,69.379 350.533 C 69.799 350.533,69.828 350.740,69.508 351.442 C 68.994 352.571,70.124 354.036,70.906 353.254 C 71.156 353.004,71.549 352.805,71.780 352.812 C 72.011 352.819,71.870 353.016,71.467 353.251 C 70.509 353.807,72.050 355.698,73.143 355.307 C 73.504 355.178,73.674 355.213,73.519 355.384 C 72.923 356.045,74.367 356.925,75.088 356.340 C 75.533 355.979,75.656 355.963,75.458 356.292 C 75.028 357.008,75.897 358.414,76.603 358.144 C 76.955 358.008,77.304 358.216,77.469 358.658 C 77.763 359.448,79.587 361.199,80.117 361.200 C 80.292 361.200,80.915 361.645,81.501 362.188 C 82.242 362.876,82.655 363.035,82.856 362.709 C 83.043 362.406,83.318 362.621,83.637 363.321 C 83.907 363.914,84.392 364.400,84.713 364.400 C 85.210 364.400,85.216 364.295,84.756 363.700 C 84.317 363.133,84.384 363.146,85.109 363.764 C 85.602 364.185,85.925 364.609,85.827 364.707 C 85.545 364.989,87.506 366.800,88.094 366.800 C 88.385 366.800,88.883 367.160,89.200 367.600 C 89.517 368.040,90.057 368.400,90.400 368.400 C 90.743 368.400,91.283 368.760,91.600 369.200 C 91.917 369.640,92.497 370.000,92.888 370.000 C 93.280 370.000,93.600 370.158,93.600 370.351 C 93.600 370.545,94.121 370.919,94.758 371.183 C 95.395 371.446,96.259 371.963,96.678 372.331 C 98.063 373.546,99.125 373.972,100.376 373.813 C 101.056 373.727,101.514 373.816,101.393 374.011 C 101.273 374.206,100.865 374.268,100.487 374.150 C 99.918 373.972,99.933 374.043,100.576 374.567 C 101.506 375.325,102.146 375.395,101.793 374.700 C 101.653 374.425,101.876 374.560,102.288 375.000 C 102.700 375.440,103.458 376.042,103.973 376.338 C 107.793 378.530,108.251 378.729,107.800 378.000 C 107.664 377.780,107.722 377.600,107.930 377.600 C 108.137 377.600,108.407 377.984,108.530 378.453 C 108.690 379.067,108.975 379.248,109.546 379.098 C 110.109 378.951,110.278 379.052,110.127 379.445 C 110.010 379.750,110.138 380.000,110.412 380.000 C 110.831 380.000,116.105 382.377,118.531 383.659 C 119.021 383.918,119.440 383.899,119.800 383.600 C 120.228 383.245,120.292 383.325,120.117 383.994 C 119.997 384.456,120.056 384.805,120.249 384.770 C 121.237 384.588,122.417 384.849,122.200 385.200 C 122.064 385.420,122.233 385.600,122.576 385.600 C 123.157 385.600,123.391 385.107,123.225 384.232 C 123.186 384.030,123.455 384.113,123.821 384.418 C 124.199 384.731,124.305 385.032,124.066 385.111 C 123.302 385.366,124.067 386.400,125.019 386.400 C 125.533 386.400,126.069 386.589,126.212 386.819 C 126.354 387.050,126.860 387.185,127.335 387.119 C 127.860 387.047,128.161 387.197,128.100 387.500 C 128.045 387.775,128.324 388.000,128.720 388.000 C 129.116 388.000,129.611 388.155,129.820 388.345 C 130.029 388.534,130.920 388.878,131.800 389.109 C 132.680 389.339,134.390 389.912,135.600 390.381 C 136.953 390.905,138.262 391.150,139.000 391.017 C 139.908 390.854,140.054 390.902,139.600 391.218 C 139.123 391.549,139.206 391.610,140.000 391.514 C 140.550 391.448,141.206 391.658,141.457 391.982 C 141.858 392.498,142.000 392.498,142.622 391.985 C 143.165 391.536,143.369 391.517,143.498 391.900 C 143.591 392.175,143.922 392.400,144.233 392.400 C 144.545 392.400,144.800 392.564,144.800 392.765 C 144.800 392.965,145.250 393.080,145.800 393.020 C 146.431 392.951,146.800 393.111,146.800 393.455 C 146.800 393.809,147.280 394.000,148.167 394.000 C 148.918 394.000,149.624 394.225,149.735 394.500 C 149.859 394.808,149.949 394.740,149.968 394.324 C 149.986 393.952,150.163 393.546,150.363 393.423 C 150.562 393.300,150.631 393.559,150.516 393.999 C 150.370 394.556,150.503 394.800,150.953 394.800 C 151.309 394.800,151.606 394.575,151.613 394.300 C 151.621 394.025,151.964 394.205,152.377 394.700 C 152.956 395.394,153.549 395.600,154.964 395.600 C 155.974 395.600,156.800 395.780,156.800 396.000 C 156.800 396.638,158.063 396.463,158.962 395.700 C 159.747 395.033,159.760 395.033,159.244 395.700 C 158.778 396.302,158.793 396.400,159.351 396.400 C 159.708 396.400,160.000 396.592,160.000 396.826 C 160.000 397.094,160.870 397.201,162.353 397.114 C 164.082 397.014,164.657 397.106,164.520 397.464 C 164.301 398.034,167.476 398.124,167.826 397.557 C 167.945 397.366,167.807 397.268,167.521 397.339 C 167.234 397.410,167.136 397.393,167.302 397.300 C 167.469 397.208,167.505 396.969,167.382 396.770 C 167.259 396.572,167.438 396.516,167.779 396.647 C 168.121 396.778,168.400 397.117,168.400 397.400 C 168.400 398.419,171.902 399.195,172.469 398.301 C 172.723 397.901,172.789 397.901,172.794 398.300 C 172.797 398.575,173.250 398.800,173.800 398.800 C 174.350 398.800,174.800 398.975,174.800 399.190 C 174.800 399.407,176.171 399.591,177.900 399.605 C 179.605 399.619,182.260 399.695,183.800 399.773 C 185.611 399.866,186.704 399.754,186.894 399.458 C 187.104 399.131,187.189 399.127,187.194 399.447 C 187.198 399.765,190.372 399.897,198.197 399.903 C 206.320 399.910,209.127 399.794,208.938 399.457 C 208.786 399.184,208.900 399.202,209.221 399.500 C 209.907 400.136,212.091 400.149,212.720 399.520 C 213.093 399.147,213.200 399.147,213.200 399.520 C 213.200 400.029,216.057 400.210,216.536 399.731 C 216.684 399.583,218.598 399.485,220.789 399.514 C 222.980 399.543,224.880 399.394,225.010 399.183 C 225.141 398.973,226.486 398.800,228.000 398.800 C 229.514 398.800,230.864 398.620,231.000 398.400 C 231.136 398.180,231.673 398.000,232.194 398.000 C 232.760 398.000,233.215 397.718,233.324 397.300 C 233.498 396.633,233.509 396.633,233.554 397.300 C 233.579 397.688,233.912 397.994,234.300 397.987 C 235.141 397.972,236.829 396.800,236.010 396.800 C 235.110 396.800,235.953 396.247,237.083 396.095 C 237.989 395.974,238.065 396.040,237.628 396.567 C 237.187 397.098,237.310 397.172,238.560 397.125 C 239.352 397.095,240.000 396.920,240.000 396.735 C 240.000 396.551,240.709 396.400,241.576 396.400 C 242.443 396.400,243.264 396.220,243.400 396.000 C 243.536 395.780,244.432 395.600,245.390 395.600 C 246.349 395.600,247.193 395.428,247.267 395.218 C 247.340 395.007,248.063 394.791,248.874 394.737 C 249.685 394.684,250.259 394.496,250.151 394.320 C 250.042 394.144,250.583 394.000,251.353 394.000 C 252.123 394.000,252.864 393.820,253.000 393.600 C 253.136 393.380,253.762 393.200,254.390 393.200 C 255.019 393.200,255.593 393.028,255.667 392.818 C 255.740 392.607,256.475 392.390,257.300 392.336 C 258.125 392.281,258.800 392.093,258.800 391.918 C 258.800 391.743,259.218 391.600,259.730 391.600 C 260.241 391.600,261.996 391.136,263.630 390.569 C 267.097 389.365,267.012 389.392,268.708 388.999 C 269.428 388.833,270.114 388.540,270.232 388.348 C 270.350 388.157,270.797 388.000,271.224 388.000 C 271.651 388.000,272.000 387.820,272.000 387.600 C 272.000 387.380,272.349 387.200,272.776 387.200 C 273.203 387.200,273.664 387.020,273.800 386.800 C 273.936 386.580,274.487 386.400,275.024 386.400 C 275.561 386.400,276.000 386.220,276.000 386.000 C 276.000 385.780,276.439 385.600,276.976 385.600 C 277.513 385.600,278.064 385.420,278.200 385.200 C 278.336 384.980,278.797 384.800,279.224 384.800 C 279.651 384.800,280.014 384.665,280.031 384.500 C 280.206 382.781,280.800 381.726,280.800 383.133 C 280.800 383.610,280.999 384.000,281.243 384.000 C 281.486 384.000,281.590 383.750,281.473 383.445 C 281.325 383.060,281.488 382.950,282.010 383.087 C 282.423 383.195,283.292 382.904,283.942 382.441 C 284.592 381.979,285.406 381.600,285.752 381.600 C 286.955 381.600,288.635 380.244,288.477 379.400 C 288.331 378.616,288.340 378.616,288.908 379.367 C 289.475 380.117,289.518 380.113,290.844 379.168 C 291.590 378.636,292.380 378.197,292.600 378.191 C 292.820 378.185,292.975 377.872,292.945 377.495 C 292.912 377.075,293.067 376.919,293.345 377.093 C 294.260 377.665,294.884 377.583,294.366 376.959 C 293.974 376.487,294.011 376.429,294.570 376.644 C 295.446 376.980,297.289 376.008,297.034 375.345 C 296.914 375.031,297.062 374.926,297.426 375.065 C 298.642 375.532,303.377 372.706,303.019 371.727 C 302.913 371.437,303.153 371.314,303.645 371.409 C 304.747 371.621,306.380 370.815,306.137 370.179 C 305.999 369.820,306.190 369.725,306.754 369.872 C 307.803 370.146,308.951 369.022,308.680 367.985 C 308.567 367.553,308.638 367.300,308.837 367.423 C 309.037 367.546,309.200 367.457,309.200 367.224 C 309.200 366.991,309.416 366.800,309.680 366.800 C 310.053 366.800,310.053 366.907,309.680 367.280 C 309.085 367.875,309.061 368.400,309.629 368.400 C 310.221 368.400,311.218 367.351,310.914 367.048 C 310.778 366.911,311.062 366.800,311.546 366.800 C 312.029 366.800,312.528 366.531,312.654 366.202 C 312.781 365.874,313.045 365.704,313.242 365.826 C 313.439 365.948,313.600 365.857,313.600 365.624 C 313.600 365.391,313.920 365.200,314.312 365.200 C 314.703 365.200,315.283 364.840,315.600 364.400 C 315.917 363.960,316.407 363.600,316.688 363.600 C 316.970 363.600,317.200 363.420,317.200 363.200 C 317.200 362.980,317.470 362.800,317.800 362.800 C 318.531 362.800,318.569 362.349,317.900 361.599 C 317.508 361.159,317.565 361.163,318.165 361.619 C 318.754 362.067,318.969 362.085,319.098 361.700 C 319.191 361.425,319.500 361.200,319.784 361.200 C 320.069 361.200,320.549 360.895,320.851 360.523 C 321.319 359.947,321.317 359.897,320.838 360.185 C 320.454 360.417,320.368 360.376,320.566 360.055 C 320.725 359.798,321.008 359.682,321.195 359.797 C 321.757 360.144,322.784 358.829,322.529 358.088 C 322.343 357.546,322.429 357.570,322.933 358.200 C 323.560 358.982,323.575 358.976,323.587 357.900 C 323.594 357.295,323.799 356.800,324.043 356.800 C 324.286 356.800,324.382 357.070,324.255 357.400 C 323.924 358.264,324.120 358.164,325.828 356.600 C 326.669 355.830,327.486 355.200,327.644 355.200 C 328.135 355.200,330.753 352.486,330.503 352.236 C 330.373 352.106,330.539 352.000,330.871 352.000 C 331.204 352.000,331.802 351.640,332.200 351.200 C 332.598 350.760,333.166 350.400,333.462 350.400 C 333.758 350.400,334.000 350.130,334.000 349.800 C 334.000 349.470,334.152 349.200,334.339 349.200 C 335.237 349.200,336.465 347.673,335.722 347.480 C 335.164 347.335,335.209 347.282,335.922 347.246 C 336.787 347.203,341.600 342.788,341.600 342.039 C 341.600 341.865,342.005 341.527,342.500 341.288 C 343.199 340.951,343.247 340.848,342.713 340.827 C 341.866 340.794,342.210 339.600,343.066 339.600 C 343.386 339.600,343.544 339.432,343.417 339.228 C 343.291 339.023,343.370 338.742,343.593 338.604 C 343.817 338.466,344.000 338.624,344.000 338.957 C 344.000 339.289,343.685 339.744,343.300 339.968 C 342.897 340.202,342.816 340.381,343.107 340.388 C 343.831 340.405,348.883 335.258,348.597 334.795 C 348.463 334.579,348.633 334.514,348.982 334.649 C 349.448 334.827,349.580 334.660,349.503 333.988 C 349.443 333.464,349.651 333.015,350.000 332.914 C 350.524 332.761,350.526 332.791,350.012 333.148 C 349.688 333.373,349.535 333.668,349.671 333.805 C 349.808 333.941,350.432 333.368,351.060 332.532 C 351.687 331.695,352.785 330.418,353.500 329.692 C 354.768 328.406,354.973 327.967,354.821 326.860 C 354.780 326.563,354.905 326.418,355.098 326.537 C 355.292 326.657,355.962 326.315,356.587 325.777 C 357.213 325.240,357.572 324.800,357.386 324.800 C 357.199 324.800,357.396 324.536,357.824 324.213 C 358.251 323.890,358.437 323.620,358.239 323.613 C 358.040 323.606,358.262 323.267,358.732 322.859 C 359.201 322.452,359.469 322.002,359.326 321.859 C 359.183 321.717,359.382 321.600,359.767 321.600 C 360.152 321.600,360.391 321.375,360.298 321.100 C 360.206 320.825,360.416 320.378,360.765 320.108 C 361.327 319.672,361.331 319.564,360.800 319.173 C 360.302 318.806,360.338 318.760,361.012 318.905 C 361.458 319.001,362.043 318.844,362.312 318.556 C 362.930 317.895,362.945 317.463,362.338 317.838 C 362.052 318.015,361.985 317.948,362.162 317.662 C 362.319 317.408,362.707 317.200,363.024 317.200 C 363.341 317.200,363.600 316.930,363.600 316.600 C 363.600 316.270,363.780 316.000,364.000 316.000 C 364.220 316.000,364.400 315.775,364.401 315.500 C 364.401 315.225,364.941 314.370,365.600 313.600 C 366.259 312.830,366.799 311.975,366.799 311.700 C 366.800 311.425,366.991 311.200,367.224 311.200 C 367.457 311.200,367.536 311.020,367.400 310.800 C 367.264 310.580,367.448 310.400,367.808 310.400 C 368.322 310.400,368.409 310.152,368.211 309.251 C 368.021 308.384,368.125 308.037,368.636 307.842 C 369.204 307.623,369.232 307.680,368.808 308.191 C 368.520 308.538,368.477 308.800,368.708 308.800 C 369.182 308.800,369.762 307.624,369.646 306.900 C 369.601 306.625,369.807 306.400,370.104 306.400 C 370.400 306.400,371.083 305.517,371.621 304.438 C 372.159 303.359,372.693 302.534,372.806 302.604 C 372.920 302.674,373.218 302.297,373.469 301.766 C 373.720 301.235,373.770 300.800,373.581 300.800 C 373.393 300.800,373.680 300.324,374.219 299.742 C 374.759 299.159,375.200 298.349,375.200 297.942 C 375.200 297.534,375.346 297.200,375.525 297.200 C 375.704 297.200,376.095 296.578,376.393 295.818 C 376.705 295.023,377.119 294.546,377.368 294.695 C 377.605 294.837,377.549 294.645,377.243 294.267 C 376.937 293.890,376.802 293.465,376.943 293.324 C 377.084 293.182,377.200 293.284,377.200 293.549 C 377.200 293.910,377.342 293.901,377.762 293.516 C 378.071 293.232,378.300 292.910,378.272 292.800 C 378.167 292.388,379.409 290.000,379.728 290.000 C 379.911 290.000,380.028 289.505,379.988 288.900 C 379.866 287.051,379.969 286.800,380.845 286.800 C 381.560 286.800,381.663 286.611,381.512 285.583 C 381.394 284.780,381.488 284.425,381.788 284.540 C 382.356 284.758,383.356 282.585,383.053 281.794 C 382.925 281.460,383.037 281.250,383.314 281.305 C 383.581 281.357,383.775 281.085,383.744 280.700 C 383.714 280.315,383.939 280.000,384.244 280.000 C 384.934 280.000,384.956 279.529,384.300 278.821 C 383.895 278.385,383.908 278.344,384.368 278.607 C 384.786 278.846,384.871 278.761,384.688 278.286 C 384.514 277.833,384.613 277.707,385.020 277.863 C 385.414 278.014,385.600 277.814,385.600 277.237 C 385.600 276.771,385.815 276.045,386.078 275.624 C 386.449 275.030,386.447 274.621,386.070 273.794 C 385.682 272.941,385.686 272.765,386.092 272.914 C 386.371 273.016,386.555 273.303,386.500 273.550 C 386.445 273.798,386.580 274.000,386.800 274.000 C 387.020 274.000,387.200 273.539,387.200 272.976 C 387.200 272.305,387.041 272.051,386.738 272.238 C 386.459 272.411,386.385 272.348,386.551 272.079 C 386.702 271.835,387.067 271.728,387.362 271.841 C 387.692 271.967,387.966 271.691,388.074 271.123 L 388.251 270.200 199.989 270.200 C 20.256 270.200,11.736 270.232,11.912 270.906 M93.377 369.549 C 93.068 369.874,91.965 369.181,92.196 368.807 C 92.352 368.553,92.639 368.589,92.981 368.904 C 93.277 369.177,93.455 369.467,93.377 369.549 M153.495 394.471 C 153.544 395.112,153.476 395.133,152.975 394.633 C 152.265 393.922,152.253 393.733,152.920 393.733 C 153.206 393.733,153.465 394.065,153.495 394.471 " stroke="none" fill="#dc0424" fill-rule="evenodd"></path><path id="path3" d="M220.690 1.055 C 220.960 1.168,221.299 1.231,221.445 1.196 C 221.591 1.161,221.879 1.372,222.086 1.666 C 222.392 2.102,222.433 2.097,222.309 1.637 C 222.226 1.327,221.717 1.023,221.179 0.962 C 220.640 0.901,220.421 0.943,220.690 1.055 M241.600 4.200 C 241.600 4.528,241.900 4.647,242.400 4.516 C 242.840 4.401,243.200 4.259,243.200 4.200 C 243.200 4.141,242.840 3.999,242.400 3.884 C 241.900 3.753,241.600 3.872,241.600 4.200 M152.710 5.100 C 152.585 5.579,152.714 5.867,153.055 5.867 C 153.681 5.867,153.728 5.622,153.249 4.866 C 152.988 4.454,152.865 4.508,152.710 5.100 M272.800 13.787 C 272.800 14.144,273.035 14.285,273.398 14.146 C 273.726 14.019,273.896 13.755,273.774 13.558 C 273.425 12.993,272.800 13.140,272.800 13.787 M122.286 15.193 C 122.146 15.728,122.115 16.248,122.216 16.349 C 122.317 16.450,122.400 16.329,122.400 16.079 C 122.400 15.818,122.697 15.732,123.100 15.876 C 123.485 16.014,123.667 15.980,123.503 15.801 C 123.340 15.621,123.430 15.187,123.703 14.837 C 124.136 14.282,124.115 14.266,123.539 14.717 C 123.008 15.131,122.844 15.133,122.709 14.727 C 122.616 14.449,122.426 14.658,122.286 15.193 M285.600 19.013 C 285.600 19.336,285.675 19.600,285.767 19.600 C 285.859 19.600,286.221 19.710,286.572 19.845 C 287.029 20.020,287.142 19.915,286.974 19.475 C 286.650 18.631,285.600 18.277,285.600 19.013 M106.800 21.751 C 106.800 21.834,107.070 22.126,107.400 22.400 C 107.891 22.808,108.000 22.780,108.000 22.249 C 108.000 21.892,107.730 21.600,107.400 21.600 C 107.070 21.600,106.800 21.668,106.800 21.751 M100.682 25.870 C 100.809 26.200,100.580 26.312,100.001 26.200 C 99.282 26.062,99.212 26.133,99.604 26.605 C 100.014 27.098,100.210 27.082,101.027 26.489 C 102.181 25.650,102.236 25.371,101.245 25.371 C 100.807 25.371,100.571 25.581,100.682 25.870 M98.047 26.771 C 97.646 27.019,97.669 27.141,98.154 27.327 C 98.495 27.458,98.873 27.405,98.994 27.210 C 99.309 26.700,98.654 26.396,98.047 26.771 M302.678 27.851 C 302.940 27.961,303.048 28.331,302.917 28.672 C 302.714 29.201,302.812 29.222,303.574 28.814 C 304.581 28.275,304.408 27.893,303.090 27.748 C 302.600 27.695,302.415 27.741,302.678 27.851 M94.610 28.784 C 94.271 29.333,94.571 29.745,95.162 29.542 C 95.404 29.458,95.435 29.176,95.237 28.857 C 94.987 28.455,94.825 28.436,94.610 28.784 M92.215 30.824 C 92.496 31.279,93.600 31.327,93.600 30.885 C 93.600 30.712,93.236 30.543,92.791 30.509 C 92.347 30.476,92.087 30.618,92.215 30.824 M309.657 32.457 C 309.375 32.909,309.232 33.366,309.340 33.473 C 309.447 33.581,309.744 33.278,310.000 32.800 C 310.605 31.670,310.324 31.390,309.657 32.457 M82.981 37.170 C 83.107 37.373,82.934 37.625,82.597 37.729 C 82.123 37.876,82.137 37.905,82.659 37.859 C 83.412 37.793,83.929 36.800,83.210 36.800 C 82.958 36.800,82.856 36.966,82.981 37.170 M319.895 39.077 C 319.507 39.178,319.295 39.430,319.423 39.637 C 319.551 39.844,319.823 39.909,320.028 39.783 C 320.232 39.656,320.400 39.743,320.400 39.976 C 320.400 40.209,320.602 40.400,320.849 40.400 C 321.179 40.400,321.180 40.258,320.852 39.863 C 320.607 39.568,320.525 39.208,320.670 39.063 C 320.815 38.918,320.858 38.821,320.767 38.846 C 320.675 38.872,320.283 38.976,319.895 39.077 M332.267 49.067 C 331.746 49.587,332.013 49.900,332.979 49.900 C 333.809 49.900,333.874 49.817,333.407 49.350 C 332.784 48.727,332.642 48.691,332.267 49.067 M333.069 50.741 C 333.246 50.883,333.499 51.144,333.631 51.319 C 333.763 51.494,334.064 51.404,334.301 51.119 C 334.633 50.719,334.504 50.586,333.740 50.541 C 333.194 50.508,332.893 50.598,333.069 50.741 M339.200 56.667 C 339.200 57.033,339.318 57.215,339.463 57.070 C 339.608 56.925,339.952 56.994,340.228 57.223 C 340.579 57.515,340.817 57.495,341.026 57.158 C 341.215 56.851,341.155 56.781,340.859 56.964 C 340.599 57.124,340.289 56.975,340.154 56.625 C 339.836 55.797,339.200 55.824,339.200 56.667 M54.800 62.001 C 54.800 62.632,55.499 62.803,55.934 62.279 C 56.254 61.894,56.165 61.753,55.580 61.708 C 55.151 61.676,54.800 61.808,54.800 62.001 M44.000 74.600 C 43.991 75.192,43.900 75.261,43.650 74.866 C 43.380 74.441,43.260 74.468,43.056 74.999 C 42.695 75.939,42.729 76.723,43.106 76.166 C 43.268 75.927,43.707 75.564,44.082 75.360 C 44.566 75.096,44.655 74.817,44.388 74.394 C 44.080 73.908,44.010 73.945,44.000 74.600 M40.200 78.306 C 39.610 78.740,39.570 79.467,40.137 79.467 C 40.407 79.467,40.629 79.137,40.629 78.733 C 40.629 78.330,40.622 78.003,40.614 78.006 C 40.606 78.009,40.420 78.144,40.200 78.306 M28.559 94.867 C 28.445 95.050,28.723 95.200,29.176 95.200 C 29.629 95.200,30.000 95.050,30.000 94.867 C 30.000 94.683,29.722 94.533,29.382 94.533 C 29.043 94.533,28.672 94.683,28.559 94.867 M16.579 119.100 C 16.638 119.485,16.487 119.949,16.243 120.130 C 15.956 120.345,16.011 120.404,16.400 120.299 C 17.066 120.120,17.485 118.400,16.863 118.400 C 16.647 118.400,16.519 118.715,16.579 119.100 M15.076 122.276 C 14.953 122.475,14.998 122.874,15.176 123.162 C 15.354 123.450,15.601 123.523,15.724 123.324 C 15.847 123.125,15.802 122.726,15.624 122.438 C 15.446 122.150,15.199 122.077,15.076 122.276 M387.347 127.914 C 387.495 128.154,387.320 128.517,386.957 128.720 C 386.594 128.923,386.464 129.193,386.669 129.319 C 386.873 129.445,387.252 129.208,387.512 128.793 C 387.862 128.232,387.866 127.965,387.530 127.757 C 387.261 127.590,387.186 127.654,387.347 127.914 M385.975 273.554 C 386.522 274.575,386.764 274.638,386.630 273.722 C 386.575 273.349,386.303 272.968,386.026 272.875 C 385.634 272.745,385.623 272.895,385.975 273.554 M15.030 277.467 C 14.889 277.834,14.960 278.320,15.187 278.547 C 15.428 278.788,15.613 278.802,15.631 278.580 C 15.647 278.371,15.722 277.885,15.795 277.500 C 15.966 276.609,15.369 276.583,15.030 277.467 M19.111 287.367 C 19.263 287.605,19.391 287.935,19.394 288.100 C 19.401 288.427,20.000 288.526,20.000 288.200 C 20.000 288.090,20.000 287.760,20.000 287.467 C 20.000 287.173,19.738 286.933,19.418 286.933 C 19.096 286.933,18.959 287.127,19.111 287.367 M379.880 287.336 C 379.767 287.631,379.835 288.126,380.031 288.436 C 380.366 288.966,380.579 288.645,380.426 287.837 C 380.389 287.637,380.592 287.325,380.879 287.143 C 381.276 286.891,381.243 286.811,380.743 286.806 C 380.381 286.803,379.993 287.041,379.880 287.336 M369.600 306.824 C 369.600 307.057,369.392 307.119,369.138 306.962 C 368.851 306.784,368.785 306.852,368.964 307.141 C 369.124 307.401,368.975 307.711,368.625 307.846 C 368.281 307.978,368.000 308.376,368.000 308.732 C 368.000 309.221,368.153 309.160,368.627 308.482 C 368.977 307.983,369.464 307.706,369.727 307.857 C 369.987 308.006,370.067 307.981,369.903 307.801 C 369.740 307.621,369.807 307.232,370.052 306.937 C 370.380 306.542,370.379 306.400,370.049 306.400 C 369.802 306.400,369.600 306.591,369.600 306.824 M36.941 315.504 C 37.086 315.739,36.979 316.015,36.702 316.116 C 36.303 316.262,36.301 316.392,36.697 316.753 C 36.970 317.003,37.106 317.087,37.000 316.940 C 36.894 316.794,36.994 316.448,37.223 316.172 C 37.515 315.821,37.495 315.583,37.158 315.374 C 36.866 315.194,36.781 315.245,36.941 315.504 M43.569 324.100 C 43.227 325.220,43.318 325.600,43.828 325.177 C 44.138 324.920,44.293 324.550,44.172 324.355 C 43.965 324.020,43.636 323.881,43.569 324.100 M354.900 327.483 C 354.900 328.542,354.915 328.540,355.524 327.367 C 355.858 326.724,355.836 326.533,355.428 326.533 C 355.138 326.533,354.900 326.961,354.900 327.483 M343.584 338.600 C 343.541 338.820,343.527 339.135,343.553 339.300 C 343.579 339.465,343.349 339.600,343.043 339.600 C 342.736 339.600,342.382 339.870,342.255 340.200 C 342.109 340.583,342.262 340.800,342.679 340.800 C 343.039 340.800,343.216 340.683,343.073 340.540 C 342.930 340.396,343.104 340.066,343.461 339.805 C 343.818 339.544,344.010 339.076,343.887 338.765 C 343.764 338.454,343.628 338.380,343.584 338.600 M68.905 351.267 C 68.875 351.670,68.922 352.000,69.011 352.000 C 69.099 352.000,69.348 351.670,69.564 351.267 C 69.847 350.738,69.818 350.533,69.458 350.533 C 69.184 350.533,68.935 350.863,68.905 351.267 M323.606 357.700 C 323.611 358.428,323.686 358.485,324.000 358.000 C 324.501 357.224,324.501 356.800,324.000 356.800 C 323.780 356.800,323.603 357.205,323.606 357.700 M84.625 363.600 C 84.825 363.930,84.991 364.335,84.994 364.500 C 84.997 364.665,85.150 364.815,85.333 364.833 C 86.045 364.904,85.968 364.496,85.134 363.764 C 84.609 363.304,84.407 363.238,84.625 363.600 M309.200 367.224 C 309.200 367.457,309.022 367.537,308.805 367.403 C 308.576 367.261,308.512 367.427,308.654 367.796 C 308.789 368.147,308.928 368.382,308.963 368.317 C 308.998 368.253,309.267 367.885,309.562 367.500 C 309.919 367.034,309.948 366.800,309.649 366.800 C 309.402 366.800,309.200 366.991,309.200 367.224 M92.196 368.807 C 92.060 369.026,92.238 369.317,92.592 369.452 C 93.453 369.783,93.643 369.514,92.981 368.904 C 92.639 368.589,92.352 368.553,92.196 368.807 M303.077 371.856 C 303.199 372.174,303.470 372.377,303.679 372.307 C 304.332 372.089,304.233 371.481,303.528 371.378 C 303.086 371.313,302.931 371.477,303.077 371.856 M123.312 384.777 C 123.272 385.306,123.440 385.483,123.837 385.331 C 124.285 385.158,124.314 384.979,123.961 384.553 C 123.379 383.852,123.381 383.851,123.312 384.777 M132.800 388.600 C 133.199 389.081,133.195 389.200,132.782 389.200 C 132.499 389.200,132.375 389.308,132.507 389.440 C 132.639 389.572,132.931 389.566,133.156 389.427 C 133.643 389.126,133.290 388.000,132.708 388.000 C 132.474 388.000,132.513 388.254,132.800 388.600 M152.400 394.090 C 152.400 394.287,152.220 394.336,152.000 394.200 C 151.780 394.064,151.600 394.163,151.600 394.419 C 151.600 394.691,151.879 394.778,152.268 394.629 C 152.635 394.488,153.077 394.602,153.250 394.881 C 153.460 395.220,153.544 395.114,153.502 394.562 C 153.443 393.778,152.400 393.332,152.400 394.090 M235.770 396.448 C 235.401 397.045,236.981 397.190,237.560 396.612 C 238.116 396.055,238.067 396.003,237.057 396.087 C 236.440 396.138,235.862 396.300,235.770 396.448 M167.403 396.805 C 167.537 397.022,167.412 397.203,167.124 397.206 C 166.561 397.213,167.515 397.982,168.100 397.994 C 168.667 398.005,168.400 396.886,167.779 396.647 C 167.423 396.511,167.263 396.578,167.403 396.805 " stroke="none" fill="#d4042c" fill-rule="evenodd"></path><path id="path4" d="" stroke="none" fill="#e8e034" fill-rule="evenodd"></path></g></svg>