<svg id="svg" version="1.1" xmlns="http://www.w3.org/2000/svg" xmlns:xlink="http://www.w3.org/1999/xlink" width="400" height="400" viewBox="0, 0, 400,400"><g id="svgg"><path id="path0" d="M190.200 0.442 C 189.492 0.681,187.171 0.750,184.538 0.609 C 181.092 0.426,180.037 0.489,179.904 0.886 C 179.784 1.241,178.908 1.389,177.066 1.363 L 174.402 1.326 174.301 87.763 L 174.200 174.200 87.706 174.301 L 1.212 174.402 1.455 176.723 C 1.652 178.607,1.568 179.175,1.009 179.734 C 0.549 180.194,0.357 180.918,0.432 181.911 C 0.493 182.730,0.489 185.110,0.421 187.200 C 0.295 191.111,0.302 205.408,0.435 214.600 C 0.482 217.900,0.672 219.905,0.955 220.087 C 1.214 220.254,1.384 221.467,1.363 222.987 L 1.326 225.600 87.383 225.600 C 153.783 225.600,173.550 225.710,173.920 226.080 C 174.290 226.450,174.400 246.225,174.400 312.655 L 174.400 398.749 177.016 398.677 C 178.602 398.633,179.744 398.782,179.916 399.056 C 180.530 400.033,219.456 400.023,220.084 399.046 C 220.252 398.784,221.435 398.634,222.984 398.677 L 225.600 398.749 225.600 312.655 C 225.600 246.225,225.710 226.450,226.080 226.080 C 226.450 225.710,246.221 225.600,312.634 225.600 L 398.708 225.600 398.654 222.986 C 398.616 221.156,398.765 220.269,399.148 220.032 C 399.510 219.808,399.655 219.103,399.575 217.947 C 399.508 216.986,399.532 214.580,399.627 212.600 C 400.073 203.327,399.662 180.313,399.044 179.913 C 398.782 179.743,398.626 178.555,398.662 177.013 L 398.725 174.400 312.642 174.400 C 246.223 174.400,226.450 174.290,226.080 173.920 C 225.710 173.550,225.600 153.783,225.600 87.383 L 225.600 1.326 222.987 1.363 C 221.355 1.386,220.262 1.220,220.077 0.922 C 219.874 0.595,218.330 0.448,215.190 0.456 C 212.665 0.463,206.280 0.371,201.000 0.253 C 194.986 0.118,190.952 0.188,190.200 0.442 M290.489 85.315 L 252.400 123.406 252.400 135.152 C 252.400 144.505,252.502 146.813,252.900 146.479 C 254.966 144.748,340.631 58.701,340.856 58.131 C 341.267 57.086,341.252 56.499,340.829 57.166 C 340.552 57.604,339.647 56.929,336.814 54.170 C 334.803 52.211,332.852 50.440,332.478 50.236 C 332.105 50.031,331.530 49.565,331.200 49.199 C 330.870 48.833,330.145 48.239,329.589 47.879 L 328.578 47.225 290.489 85.315 M54.196 63.326 C 50.575 67.068,48.274 69.706,47.523 70.978 C 47.352 71.268,61.842 86.043,85.330 109.530 L 123.414 147.612 135.131 147.506 L 146.847 147.400 102.846 103.407 C 78.645 79.211,58.698 59.366,58.518 59.306 C 58.338 59.246,56.393 61.055,54.196 63.326 M253.600 252.701 C 253.600 253.107,341.316 340.800,341.723 340.800 C 342.090 340.800,345.596 337.267,348.701 333.767 C 349.857 332.465,351.123 331.040,351.516 330.600 C 351.909 330.160,352.382 329.554,352.567 329.253 C 352.813 328.855,342.549 318.350,314.753 290.553 L 276.602 252.400 265.101 252.400 C 258.775 252.400,253.600 252.535,253.600 252.701 M103.300 297.300 C 79.045 321.556,59.200 341.527,59.200 341.680 C 59.200 342.093,66.237 348.821,68.952 351.004 L 71.305 352.895 109.459 314.741 L 147.612 276.587 147.506 264.893 L 147.400 253.198 103.300 297.300 " stroke="none" fill="#dc0424" fill-rule="evenodd"></path><path id="path1" d="M146.100 6.544 C 145.605 6.789,145.200 7.127,145.200 7.295 C 145.200 7.463,144.480 7.600,143.600 7.600 C 142.720 7.600,142.000 7.780,142.000 8.000 C 142.000 8.220,141.539 8.400,140.976 8.400 C 140.304 8.400,140.051 8.559,140.239 8.862 C 140.444 9.195,140.153 9.251,139.205 9.061 C 138.374 8.895,137.656 8.983,137.266 9.299 C 136.751 9.716,136.703 9.699,136.982 9.200 C 137.255 8.712,137.217 8.693,136.779 9.100 C 136.482 9.375,135.905 9.600,135.496 9.600 C 135.087 9.600,134.864 9.780,135.000 10.000 C 135.149 10.240,134.629 10.400,133.699 10.400 C 132.704 10.400,131.844 10.686,131.292 11.200 C 130.769 11.688,129.881 12.000,129.017 12.000 C 128.238 12.000,127.600 12.180,127.600 12.400 C 127.600 12.620,127.330 12.800,127.000 12.800 C 126.670 12.800,126.400 12.980,126.400 13.200 C 126.400 13.420,125.860 13.600,125.200 13.600 C 124.540 13.600,124.000 13.780,124.000 14.000 C 124.000 14.220,123.415 14.413,122.700 14.428 C 121.611 14.452,121.530 14.512,122.200 14.800 C 122.867 15.086,122.779 15.148,121.676 15.172 C 120.902 15.188,120.455 15.366,120.600 15.600 C 120.743 15.831,120.367 16.000,119.712 16.000 C 119.035 16.000,118.344 16.323,118.000 16.800 C 117.598 17.357,116.965 17.600,115.912 17.600 C 115.080 17.600,114.400 17.780,114.400 18.000 C 114.400 18.220,114.132 18.400,113.803 18.400 C 113.475 18.400,112.982 18.760,112.707 19.200 C 112.432 19.640,112.060 20.000,111.880 20.000 C 111.700 20.000,111.664 19.820,111.800 19.600 C 111.936 19.380,111.857 19.200,111.624 19.200 C 111.391 19.200,111.200 19.380,111.200 19.600 C 111.200 19.820,110.810 20.000,110.333 20.000 C 109.857 20.000,109.578 20.111,109.714 20.248 C 110.173 20.706,108.867 21.600,107.729 21.606 C 106.853 21.611,106.734 21.699,107.200 22.000 C 107.660 22.297,107.518 22.389,106.588 22.394 C 105.841 22.398,105.156 22.706,104.800 23.200 C 104.483 23.640,103.903 24.000,103.512 24.000 C 103.120 24.000,102.800 24.180,102.800 24.400 C 102.800 24.620,102.440 24.800,102.000 24.800 C 101.560 24.800,101.200 24.991,101.200 25.224 C 101.200 25.457,101.020 25.536,100.800 25.400 C 100.580 25.264,100.400 25.463,100.400 25.843 C 100.400 26.223,100.295 26.428,100.166 26.299 C 99.791 25.924,97.461 26.866,96.739 27.684 C 96.248 28.240,96.024 28.300,95.870 27.916 C 95.712 27.521,95.656 27.517,95.632 27.900 C 95.614 28.175,95.319 28.400,94.976 28.400 C 94.633 28.400,94.464 28.580,94.600 28.800 C 94.736 29.020,94.477 29.200,94.024 29.200 C 93.571 29.200,93.200 29.380,93.200 29.600 C 93.200 29.820,93.002 30.000,92.760 30.000 C 92.519 30.000,91.817 30.540,91.200 31.200 C 90.583 31.860,89.746 32.403,89.340 32.406 C 88.716 32.411,88.694 32.473,89.200 32.800 C 89.685 33.114,89.628 33.189,88.900 33.194 C 88.405 33.197,88.000 33.380,88.000 33.600 C 88.000 33.820,87.640 34.000,87.200 34.000 C 86.760 34.000,86.400 34.180,86.400 34.400 C 86.400 34.620,86.080 34.800,85.688 34.800 C 85.297 34.800,84.717 35.160,84.400 35.600 C 84.083 36.040,83.615 36.400,83.360 36.400 C 83.105 36.400,82.155 37.120,81.248 38.000 C 80.341 38.880,79.406 39.600,79.171 39.600 C 78.722 39.600,77.600 40.579,77.600 40.971 C 77.600 41.097,77.737 41.200,77.905 41.200 C 78.073 41.200,93.822 56.815,112.904 75.900 L 147.599 110.600 147.599 58.700 C 147.600 22.438,147.472 6.800,147.176 6.800 C 146.943 6.800,146.864 6.620,147.000 6.400 C 147.136 6.180,147.192 6.022,147.124 6.049 C 147.056 6.076,146.595 6.299,146.100 6.544 M252.885 6.705 C 252.508 6.831,252.400 18.456,252.401 58.733 L 252.401 110.600 287.096 75.900 C 306.178 56.815,321.927 41.200,322.095 41.200 C 322.624 41.200,322.431 40.794,321.418 39.782 C 320.878 39.242,320.230 38.800,319.979 38.800 C 319.727 38.800,319.017 38.260,318.400 37.600 C 317.783 36.940,317.031 36.400,316.728 36.400 C 316.425 36.400,315.917 36.040,315.600 35.600 C 315.283 35.160,314.703 34.800,314.312 34.800 C 313.920 34.800,313.600 34.620,313.600 34.400 C 313.600 34.180,313.240 34.000,312.800 34.000 C 312.360 34.000,312.000 33.820,312.000 33.600 C 312.000 33.380,311.716 33.200,311.369 33.200 C 311.021 33.200,310.046 32.480,309.200 31.600 C 308.354 30.720,307.469 30.000,307.231 30.000 C 306.994 30.000,306.800 29.820,306.800 29.600 C 306.800 29.380,306.530 29.200,306.200 29.200 C 305.870 29.200,305.600 29.020,305.600 28.800 C 305.600 28.580,305.330 28.400,305.000 28.400 C 304.670 28.400,304.400 28.220,304.400 28.000 C 304.400 27.780,304.040 27.600,303.600 27.600 C 303.160 27.600,302.800 27.455,302.800 27.277 C 302.800 26.916,299.570 25.377,299.100 25.513 C 298.935 25.561,298.800 25.420,298.800 25.200 C 298.800 24.980,298.440 24.800,298.000 24.800 C 297.560 24.800,297.200 24.620,297.200 24.400 C 297.200 24.180,296.795 23.997,296.300 23.994 C 295.572 23.989,295.515 23.914,296.000 23.600 C 296.460 23.303,296.318 23.211,295.388 23.206 C 294.641 23.202,293.956 22.894,293.600 22.400 C 293.267 21.938,292.565 21.600,291.939 21.600 C 291.205 21.600,290.772 21.341,290.600 20.800 C 290.460 20.360,289.998 20.000,289.573 20.000 C 289.148 20.000,288.800 19.820,288.800 19.600 C 288.800 19.380,288.326 19.200,287.747 19.200 C 287.167 19.200,286.358 18.813,285.947 18.339 C 285.536 17.865,285.200 17.692,285.200 17.954 C 285.200 18.220,284.813 18.070,284.325 17.616 C 283.835 17.160,282.904 16.800,282.213 16.800 C 281.435 16.800,280.763 16.503,280.400 16.000 C 280.044 15.506,279.359 15.198,278.612 15.194 C 277.682 15.189,277.540 15.097,278.000 14.800 C 278.437 14.518,278.111 14.409,276.800 14.400 C 275.489 14.391,275.163 14.282,275.600 14.000 C 276.085 13.686,276.028 13.611,275.300 13.606 C 274.805 13.603,274.400 13.420,274.400 13.200 C 274.400 12.980,273.965 12.800,273.433 12.800 C 272.902 12.800,272.376 12.575,272.265 12.300 C 272.104 11.900,272.057 11.900,272.032 12.300 C 272.014 12.575,271.809 12.800,271.576 12.800 C 271.343 12.800,271.240 12.658,271.348 12.485 C 271.455 12.312,270.970 11.936,270.271 11.651 C 269.572 11.366,268.640 10.966,268.200 10.762 C 267.760 10.559,266.905 10.354,266.300 10.309 C 265.695 10.263,265.200 10.064,265.200 9.867 C 265.200 9.670,264.652 9.590,263.983 9.688 C 263.007 9.831,262.813 9.744,263.004 9.245 C 263.135 8.904,263.124 8.742,262.980 8.887 C 262.836 9.031,262.298 8.989,261.786 8.794 C 261.145 8.551,260.792 8.590,260.658 8.920 C 260.512 9.280,260.455 9.275,260.432 8.900 C 260.413 8.601,259.836 8.400,259.000 8.400 C 258.230 8.400,257.600 8.220,257.600 8.000 C 257.600 7.780,257.240 7.600,256.800 7.600 C 256.360 7.600,255.997 7.375,255.994 7.100 C 255.990 6.767,255.858 6.800,255.600 7.200 C 255.387 7.530,255.209 7.596,255.206 7.347 C 255.200 6.859,253.681 6.440,252.885 6.705 M40.084 78.215 C 39.787 78.552,39.744 78.800,39.982 78.800 C 40.210 78.800,39.497 79.718,38.398 80.841 C 37.299 81.963,36.400 83.093,36.400 83.352 C 36.400 83.611,36.040 84.083,35.600 84.400 C 35.160 84.717,34.800 85.297,34.800 85.688 C 34.800 86.080,34.620 86.400,34.400 86.400 C 34.180 86.400,34.000 86.760,34.000 87.200 C 34.000 87.640,33.820 88.000,33.600 88.000 C 33.380 88.000,33.200 88.284,33.200 88.631 C 33.200 88.979,32.480 89.954,31.600 90.800 C 30.720 91.646,30.000 92.531,30.000 92.769 C 30.000 93.006,29.820 93.200,29.600 93.200 C 29.380 93.200,29.200 93.470,29.200 93.800 C 29.200 94.130,29.020 94.400,28.800 94.400 C 28.580 94.400,28.400 94.670,28.400 95.000 C 28.400 95.330,28.175 95.603,27.900 95.606 C 27.508 95.611,27.506 95.679,27.891 95.924 C 28.252 96.154,28.173 96.387,27.591 96.806 C 27.156 97.120,26.800 97.686,26.800 98.065 C 26.800 98.443,26.608 98.872,26.373 99.017 C 26.138 99.162,26.042 99.533,26.160 99.840 C 26.283 100.160,26.128 100.400,25.800 100.400 C 25.458 100.400,25.317 100.639,25.451 100.990 C 25.576 101.314,25.389 101.869,25.035 102.222 C 24.682 102.575,24.475 102.997,24.575 103.159 C 24.675 103.322,24.407 103.707,23.979 104.015 C 23.550 104.324,23.200 104.897,23.200 105.288 C 23.200 105.680,23.020 106.000,22.800 106.000 C 22.580 106.000,22.397 106.405,22.394 106.900 C 22.389 107.628,22.314 107.685,22.000 107.200 C 21.706 106.745,21.611 106.914,21.606 107.900 C 21.603 108.615,21.420 109.200,21.200 109.200 C 20.980 109.200,20.787 109.605,20.772 110.100 C 20.745 110.959,20.728 110.963,20.400 110.200 C 20.067 109.425,20.055 109.427,20.028 110.267 C 20.013 110.743,19.822 111.193,19.603 111.267 C 19.385 111.340,19.167 111.882,19.119 112.471 C 19.070 113.060,18.888 113.455,18.715 113.348 C 18.542 113.240,18.400 113.433,18.400 113.776 C 18.400 114.119,18.220 114.400,18.000 114.400 C 17.780 114.400,17.600 115.041,17.600 115.824 C 17.600 116.671,17.438 117.147,17.200 117.000 C 16.980 116.864,16.800 117.123,16.800 117.576 C 16.800 118.029,16.620 118.400,16.400 118.400 C 16.180 118.400,16.000 118.940,16.000 119.600 C 16.000 120.260,15.820 120.800,15.600 120.800 C 15.380 120.800,15.200 121.160,15.200 121.600 C 15.200 122.040,15.020 122.400,14.800 122.400 C 14.580 122.400,14.400 122.760,14.400 123.200 C 14.400 123.640,14.220 124.000,14.000 124.000 C 13.780 124.000,13.600 124.540,13.600 125.200 C 13.600 125.860,13.420 126.400,13.200 126.400 C 12.980 126.400,12.800 126.670,12.800 127.000 C 12.800 127.330,12.620 127.600,12.400 127.600 C 12.180 127.600,12.000 128.241,12.000 129.024 C 12.000 129.871,11.838 130.347,11.600 130.200 C 11.260 129.990,10.996 131.109,11.153 132.100 C 11.179 132.265,11.020 132.400,10.800 132.400 C 10.580 132.400,10.400 132.940,10.400 133.600 C 10.400 134.260,10.200 134.800,9.955 134.800 C 9.686 134.800,9.580 135.283,9.688 136.017 C 9.814 136.880,9.721 137.178,9.366 137.042 C 9.011 136.906,8.902 137.251,8.993 138.225 C 9.063 138.981,8.958 139.600,8.760 139.600 C 8.562 139.600,8.400 140.140,8.400 140.800 C 8.400 141.460,8.220 142.000,8.000 142.000 C 7.780 142.000,7.600 142.720,7.600 143.600 C 7.600 144.480,7.465 145.201,7.300 145.203 C 7.135 145.205,6.792 145.655,6.537 146.204 C 6.283 146.752,6.238 147.100,6.437 146.977 C 6.637 146.854,6.800 146.943,6.800 147.176 C 6.800 147.472,22.438 147.600,58.700 147.599 L 110.600 147.599 75.900 112.904 C 56.815 93.822,41.200 78.073,41.200 77.905 C 41.200 77.423,40.647 77.577,40.084 78.215 M358.800 77.905 C 358.800 78.073,343.185 93.822,324.100 112.904 L 289.400 147.599 341.300 147.599 C 377.562 147.600,393.200 147.472,393.200 147.176 C 393.200 146.943,393.380 146.864,393.600 147.000 C 393.820 147.136,394.000 147.057,394.000 146.824 C 394.000 146.591,393.820 146.400,393.600 146.400 C 393.380 146.400,393.200 146.145,393.200 145.833 C 393.200 145.522,392.975 145.175,392.700 145.064 C 392.324 144.911,392.348 144.756,392.800 144.437 C 393.207 144.149,393.239 144.010,392.900 144.006 C 392.625 144.003,392.400 143.550,392.400 143.000 C 392.400 142.450,392.238 142.000,392.039 142.000 C 391.841 142.000,391.553 140.920,391.400 139.600 C 391.247 138.280,390.959 137.200,390.761 137.200 C 390.562 137.200,390.400 136.559,390.400 135.776 C 390.400 134.929,390.238 134.453,390.000 134.600 C 389.762 134.747,389.600 134.279,389.600 133.447 C 389.600 132.677,389.420 131.936,389.200 131.800 C 388.980 131.664,388.800 131.203,388.800 130.776 C 388.800 130.349,388.620 130.000,388.400 130.000 C 388.180 130.000,388.000 129.460,388.000 128.800 C 388.000 128.140,387.820 127.600,387.600 127.600 C 387.380 127.600,387.197 127.105,387.194 126.500 C 387.189 125.643,387.102 125.532,386.800 126.000 C 386.486 126.485,386.411 126.428,386.406 125.700 C 386.403 125.205,386.220 124.800,386.000 124.800 C 385.780 124.800,385.600 124.120,385.600 123.288 C 385.600 122.241,385.357 121.601,384.809 121.206 C 384.227 120.787,384.148 120.554,384.509 120.324 C 384.894 120.079,384.892 120.011,384.500 120.006 C 384.225 120.003,384.000 119.640,384.000 119.200 C 384.000 118.760,383.820 118.400,383.600 118.400 C 383.380 118.400,383.200 118.128,383.200 117.795 C 383.200 117.462,382.992 116.787,382.738 116.295 C 381.803 114.487,381.600 114.002,381.600 113.577 C 381.600 112.981,380.553 111.981,380.248 112.286 C 380.111 112.422,380.000 112.338,380.000 112.100 C 380.000 111.862,380.225 111.576,380.500 111.465 C 380.900 111.304,380.900 111.257,380.500 111.232 C 380.225 111.214,380.000 110.810,380.000 110.333 C 380.000 109.857,379.889 109.578,379.752 109.714 C 379.397 110.069,378.400 108.974,378.400 108.229 C 378.400 107.883,378.220 107.600,378.000 107.600 C 377.780 107.600,377.600 107.126,377.600 106.547 C 377.600 105.967,377.213 105.158,376.739 104.747 C 376.265 104.336,376.093 104.000,376.357 104.000 C 376.621 104.000,376.375 103.538,375.811 102.974 C 375.246 102.410,374.881 101.792,374.999 101.602 C 375.117 101.411,375.027 101.140,374.800 101.000 C 374.573 100.860,374.489 100.579,374.614 100.377 C 374.739 100.175,374.560 100.117,374.216 100.249 C 373.762 100.423,373.659 100.313,373.838 99.845 C 373.974 99.490,373.886 99.200,373.643 99.200 C 373.399 99.200,373.200 98.829,373.200 98.376 C 373.200 97.923,373.020 97.664,372.800 97.800 C 372.580 97.936,372.400 97.767,372.400 97.424 C 372.400 97.081,372.220 96.800,372.000 96.800 C 371.780 96.800,371.597 96.215,371.594 95.500 C 371.589 94.514,371.494 94.345,371.200 94.800 C 370.898 95.268,370.811 95.157,370.806 94.300 C 370.803 93.695,370.648 93.200,370.461 93.200 C 369.872 93.200,368.400 91.730,368.400 91.141 C 368.400 90.831,368.040 90.317,367.600 90.000 C 367.160 89.683,366.800 89.103,366.800 88.712 C 366.800 88.320,366.620 88.000,366.400 88.000 C 366.180 88.000,366.000 87.640,366.000 87.200 C 366.000 86.760,365.820 86.400,365.600 86.400 C 365.380 86.400,365.200 86.080,365.200 85.688 C 365.200 85.297,364.840 84.717,364.400 84.400 C 363.960 84.083,363.600 83.563,363.600 83.245 C 363.600 82.927,363.491 82.776,363.358 82.909 C 363.005 83.262,361.200 81.346,361.200 80.618 C 361.200 80.278,361.009 80.000,360.776 80.000 C 360.543 80.000,360.464 79.820,360.600 79.600 C 360.736 79.380,360.567 79.200,360.224 79.200 C 359.867 79.200,359.600 78.858,359.600 78.400 C 359.600 77.960,359.420 77.600,359.200 77.600 C 358.980 77.600,358.800 77.737,358.800 77.905 M6.698 252.900 C 6.467 253.588,6.816 254.800,7.247 254.800 C 7.441 254.800,7.600 255.520,7.600 256.400 C 7.600 257.280,7.780 258.000,8.000 258.000 C 8.220 258.000,8.400 258.540,8.400 259.200 C 8.400 259.860,8.538 260.400,8.707 260.400 C 8.876 260.400,8.985 261.017,8.949 261.771 C 8.905 262.709,9.040 263.083,9.376 262.954 C 9.719 262.822,9.813 263.132,9.688 263.983 C 9.590 264.652,9.671 265.200,9.870 265.200 C 10.068 265.200,10.274 265.782,10.328 266.493 C 10.383 267.205,10.601 267.961,10.813 268.173 C 11.026 268.386,11.203 268.929,11.206 269.380 C 11.211 270.056,11.280 270.095,11.600 269.600 C 11.884 269.161,11.989 269.455,11.994 270.700 C 11.997 271.635,12.180 272.400,12.400 272.400 C 12.620 272.400,12.803 272.895,12.806 273.500 C 12.811 274.357,12.898 274.468,13.200 274.000 C 13.503 273.531,13.589 273.634,13.594 274.476 C 13.597 275.068,13.780 275.664,14.000 275.800 C 14.220 275.936,14.400 276.397,14.400 276.824 C 14.400 277.251,14.580 277.600,14.800 277.600 C 15.020 277.600,15.203 278.185,15.206 278.900 C 15.211 279.886,15.306 280.055,15.600 279.600 C 15.891 279.149,15.991 279.348,16.000 280.400 C 16.009 281.452,16.109 281.651,16.400 281.200 C 16.693 280.746,16.789 280.922,16.794 281.924 C 16.797 282.703,16.964 283.146,17.200 283.000 C 17.435 282.855,17.600 283.280,17.600 284.029 C 17.600 284.732,17.915 285.597,18.300 285.953 C 18.685 286.309,19.062 287.050,19.138 287.600 C 19.214 288.150,19.439 288.660,19.638 288.733 C 19.837 288.807,20.000 289.120,20.000 289.430 C 20.000 289.740,20.360 290.218,20.800 290.493 C 21.240 290.768,21.600 291.309,21.600 291.696 C 21.600 292.083,21.780 292.400,22.000 292.400 C 22.220 292.400,22.400 292.771,22.400 293.224 C 22.400 293.677,22.580 293.936,22.800 293.800 C 23.020 293.664,23.200 293.833,23.200 294.176 C 23.200 294.519,23.380 294.800,23.600 294.800 C 23.820 294.800,24.000 295.340,24.000 296.000 C 24.000 296.660,24.180 297.200,24.400 297.200 C 24.620 297.200,24.800 297.560,24.800 298.000 C 24.800 298.440,24.980 298.800,25.200 298.800 C 25.420 298.800,25.557 298.935,25.505 299.100 C 25.345 299.606,26.473 302.000,26.872 302.000 C 27.078 302.000,27.136 302.180,27.000 302.400 C 26.864 302.620,26.943 302.800,27.176 302.800 C 27.409 302.800,27.600 303.078,27.600 303.417 C 27.600 303.756,27.960 304.420,28.400 304.892 C 28.840 305.364,29.200 305.987,29.200 306.275 C 29.200 306.564,29.380 306.800,29.600 306.800 C 29.820 306.800,30.000 306.994,30.000 307.231 C 30.000 307.469,30.720 308.354,31.600 309.200 C 32.480 310.046,33.200 311.021,33.200 311.369 C 33.200 311.716,33.380 312.000,33.600 312.000 C 33.820 312.000,34.000 312.360,34.000 312.800 C 34.000 313.240,34.180 313.600,34.400 313.600 C 34.620 313.600,34.800 313.920,34.800 314.312 C 34.800 314.703,35.160 315.283,35.600 315.600 C 36.040 315.917,36.400 316.385,36.400 316.640 C 36.400 316.895,37.109 317.834,37.975 318.727 C 38.937 319.718,39.365 320.425,39.075 320.543 C 38.814 320.650,39.050 320.765,39.600 320.800 C 40.150 320.835,40.377 320.953,40.104 321.064 C 39.723 321.218,39.739 321.396,40.175 321.832 C 40.803 322.460,41.200 322.562,41.200 322.095 C 41.200 321.927,56.815 306.178,75.900 287.096 L 110.600 252.401 58.733 252.401 C 17.596 252.400,6.832 252.503,6.698 252.900 M290.000 252.703 C 290.000 252.870,305.480 268.482,324.400 287.398 C 343.320 306.313,358.800 321.926,358.800 322.095 C 358.800 322.562,359.197 322.460,359.825 321.832 C 360.261 321.396,360.277 321.218,359.896 321.064 C 359.623 320.953,359.850 320.835,360.400 320.800 C 360.950 320.765,361.168 320.644,360.884 320.530 C 360.509 320.379,360.597 320.123,361.200 319.600 C 361.803 319.077,361.891 318.821,361.516 318.670 C 361.232 318.556,361.405 318.449,361.900 318.432 C 362.697 318.404,362.855 318.215,362.780 317.379 C 362.769 317.257,363.309 316.645,363.980 316.018 C 364.651 315.392,365.200 314.591,365.200 314.240 C 365.200 313.888,365.380 313.600,365.600 313.600 C 365.820 313.600,366.000 313.280,366.000 312.888 C 366.000 312.497,366.360 311.917,366.800 311.600 C 367.240 311.283,367.600 310.775,367.600 310.472 C 367.600 310.169,368.140 309.417,368.800 308.800 C 369.460 308.183,370.000 307.481,370.000 307.240 C 370.000 306.998,370.180 306.800,370.400 306.800 C 370.620 306.800,370.800 306.522,370.800 306.183 C 370.800 305.844,371.160 305.180,371.600 304.708 C 372.040 304.236,372.403 303.388,372.406 302.825 C 372.411 302.016,372.494 301.927,372.800 302.400 C 373.095 302.857,373.189 302.871,373.194 302.462 C 373.197 302.166,373.561 301.416,374.003 300.795 C 374.445 300.175,374.918 299.112,375.053 298.434 C 375.189 297.755,375.457 297.200,375.650 297.200 C 375.843 297.200,376.000 296.840,376.000 296.400 C 376.000 295.960,376.180 295.600,376.400 295.600 C 376.620 295.600,376.800 295.240,376.800 294.800 C 376.800 294.360,376.980 294.000,377.200 294.000 C 377.420 294.000,377.600 293.640,377.600 293.200 C 377.600 292.760,377.780 292.400,378.000 292.400 C 378.220 292.400,378.400 292.083,378.400 291.696 C 378.400 291.309,378.760 290.768,379.200 290.493 C 379.640 290.218,380.000 289.740,380.000 289.430 C 380.000 289.120,380.225 288.776,380.500 288.665 C 380.862 288.519,380.845 288.454,380.439 288.432 C 380.064 288.410,380.184 288.134,380.800 287.600 C 381.324 287.146,381.497 286.800,381.200 286.800 C 380.891 286.800,381.030 286.495,381.539 286.053 C 382.012 285.642,382.400 285.023,382.400 284.677 C 382.400 284.330,382.580 283.936,382.800 283.800 C 383.020 283.664,383.200 283.113,383.200 282.576 C 383.200 282.039,383.380 281.600,383.600 281.600 C 383.820 281.600,384.000 281.240,384.000 280.800 C 384.000 280.360,384.225 279.997,384.500 279.994 C 384.833 279.990,384.800 279.858,384.400 279.600 C 384.000 279.342,383.967 279.210,384.300 279.206 C 384.575 279.203,384.803 278.795,384.806 278.300 C 384.811 277.572,384.886 277.515,385.200 278.000 C 385.484 278.439,385.589 278.145,385.594 276.900 C 385.597 275.965,385.780 275.200,386.000 275.200 C 386.220 275.200,386.400 274.840,386.400 274.400 C 386.400 273.960,386.580 273.600,386.800 273.600 C 387.020 273.600,387.200 273.330,387.200 273.000 C 387.200 272.670,387.380 272.400,387.600 272.400 C 387.820 272.400,388.000 271.759,388.000 270.976 C 388.000 270.129,388.162 269.653,388.400 269.800 C 388.620 269.936,388.800 269.687,388.800 269.247 C 388.800 268.807,388.980 268.336,389.200 268.200 C 389.420 268.064,389.600 267.323,389.600 266.553 C 389.600 265.721,389.762 265.253,390.000 265.400 C 390.223 265.538,390.400 265.231,390.400 264.704 C 390.400 264.185,390.568 263.589,390.773 263.380 C 390.978 263.171,391.268 261.920,391.417 260.600 C 391.567 259.280,391.849 258.140,392.045 258.067 C 392.240 257.993,392.400 257.513,392.400 257.000 C 392.400 256.487,392.625 255.976,392.900 255.865 C 393.300 255.704,393.300 255.657,392.900 255.632 C 392.625 255.614,392.400 255.409,392.400 255.176 C 392.400 254.943,392.580 254.864,392.800 255.000 C 393.020 255.136,393.200 254.892,393.200 254.457 C 393.200 254.022,393.425 253.575,393.700 253.464 C 394.076 253.311,394.052 253.156,393.600 252.837 C 392.898 252.340,290.000 252.207,290.000 252.703 M112.802 324.200 C 93.777 343.230,78.073 358.800,77.905 358.800 C 77.438 358.800,77.540 359.197,78.168 359.825 C 78.604 360.261,78.782 360.277,78.936 359.896 C 79.095 359.504,79.143 359.504,79.168 359.900 C 79.186 360.175,79.458 360.400,79.773 360.400 C 80.088 360.400,80.468 360.784,80.617 361.253 C 80.829 361.923,80.963 361.987,81.238 361.553 C 81.493 361.150,81.591 361.272,81.600 362.000 C 81.609 362.728,81.707 362.850,81.962 362.447 C 82.237 362.013,82.371 362.077,82.583 362.747 C 82.732 363.216,83.072 363.600,83.339 363.600 C 83.605 363.600,84.083 363.960,84.400 364.400 C 84.717 364.840,85.297 365.200,85.688 365.200 C 86.080 365.200,86.400 365.380,86.400 365.600 C 86.400 365.820,86.760 366.000,87.200 366.000 C 87.640 366.000,88.000 366.180,88.000 366.400 C 88.000 366.620,88.320 366.800,88.712 366.800 C 89.103 366.800,89.683 367.160,90.000 367.600 C 90.317 368.040,90.831 368.400,91.141 368.400 C 91.730 368.400,93.200 369.872,93.200 370.461 C 93.200 370.648,93.680 370.800,94.267 370.800 C 94.853 370.800,95.216 370.917,95.073 371.060 C 94.674 371.460,96.085 372.373,97.124 372.387 C 97.635 372.394,97.937 372.578,97.800 372.800 C 97.660 373.027,97.996 373.200,98.576 373.200 C 99.139 373.200,100.005 373.605,100.500 374.100 C 101.440 375.040,101.503 375.069,102.800 375.150 C 103.346 375.184,103.602 375.486,103.606 376.100 C 103.610 376.685,103.721 376.828,103.924 376.509 C 104.154 376.148,104.387 376.227,104.806 376.809 C 105.139 377.270,105.840 377.600,106.488 377.600 C 107.100 377.600,107.600 377.780,107.600 378.000 C 107.600 378.220,108.005 378.403,108.500 378.406 C 109.068 378.410,109.223 378.525,108.920 378.717 C 108.603 378.919,108.876 379.212,109.720 379.579 C 110.424 379.885,111.132 380.330,111.294 380.568 C 111.493 380.861,111.590 380.839,111.594 380.500 C 111.604 379.696,112.241 379.924,112.712 380.900 C 112.951 381.395,113.158 381.575,113.173 381.300 C 113.188 381.025,113.410 380.800,113.667 380.800 C 113.923 380.800,114.016 380.917,113.873 381.060 C 113.478 381.455,114.880 382.373,115.900 382.387 C 116.395 382.394,116.800 382.580,116.800 382.800 C 116.800 383.020,117.160 383.200,117.600 383.200 C 118.040 383.200,118.400 383.380,118.400 383.600 C 118.400 383.820,118.985 384.003,119.700 384.006 C 120.686 384.011,120.855 384.106,120.400 384.400 C 119.963 384.682,120.289 384.791,121.600 384.800 C 122.911 384.809,123.237 384.918,122.800 385.200 C 122.315 385.514,122.372 385.589,123.100 385.594 C 123.595 385.597,124.000 385.780,124.000 386.000 C 124.000 386.220,124.585 386.403,125.300 386.406 C 126.286 386.411,126.455 386.506,126.000 386.800 C 125.532 387.102,125.643 387.189,126.500 387.194 C 127.105 387.197,127.600 387.380,127.600 387.600 C 127.600 387.820,128.455 388.014,129.500 388.032 C 130.545 388.049,131.162 388.158,130.872 388.274 C 130.023 388.614,132.298 389.599,133.946 389.606 C 135.032 389.611,135.248 389.710,134.800 390.000 C 134.331 390.303,134.434 390.389,135.276 390.394 C 135.868 390.397,136.450 390.557,136.568 390.748 C 136.686 390.940,137.724 391.187,138.875 391.298 C 140.025 391.408,141.034 391.701,141.116 391.949 C 141.199 392.197,141.882 392.400,142.633 392.400 C 143.457 392.400,144.002 392.599,144.006 392.900 C 144.010 393.239,144.149 393.207,144.437 392.800 C 144.756 392.348,144.911 392.324,145.064 392.700 C 145.175 392.975,145.507 393.200,145.800 393.200 C 146.093 393.200,146.425 393.425,146.536 393.700 C 147.473 396.010,147.588 390.328,147.594 341.300 C 147.597 312.865,147.554 289.600,147.497 289.600 C 147.440 289.600,131.828 305.170,112.802 324.200 M252.400 341.600 C 252.400 377.650,252.528 393.200,252.824 393.200 C 253.057 393.200,253.136 393.380,253.000 393.600 C 252.864 393.820,252.943 394.000,253.176 394.000 C 253.409 394.000,253.600 393.820,253.600 393.600 C 253.600 393.380,253.960 393.200,254.400 393.200 C 254.840 393.200,255.203 392.975,255.206 392.700 C 255.210 392.367,255.342 392.400,255.600 392.800 C 255.858 393.200,255.990 393.233,255.994 392.900 C 255.997 392.625,256.360 392.400,256.800 392.400 C 257.240 392.400,257.600 392.220,257.600 392.000 C 257.600 391.780,258.095 391.598,258.700 391.596 C 260.614 391.588,262.792 391.111,262.568 390.749 C 262.450 390.557,263.073 390.400,263.953 390.400 C 264.833 390.400,265.664 390.220,265.800 390.000 C 265.936 389.780,266.407 389.600,266.847 389.600 C 267.287 389.600,267.553 389.447,267.437 389.260 C 267.322 389.074,267.786 388.905,268.469 388.886 C 269.151 388.866,269.901 388.659,270.135 388.425 C 270.369 388.191,270.974 388.000,271.480 388.000 C 271.986 388.000,272.400 387.820,272.400 387.600 C 272.400 387.380,272.810 387.200,273.312 387.200 C 273.813 387.200,274.483 386.840,274.800 386.400 C 275.183 385.869,275.835 385.600,276.741 385.600 C 277.641 385.600,278.361 385.306,278.853 384.739 C 279.295 384.230,279.600 384.091,279.600 384.400 C 279.600 384.709,279.905 384.570,280.347 384.061 C 280.758 383.588,281.480 383.200,281.952 383.200 C 282.863 383.200,284.404 382.467,284.894 381.800 C 285.074 381.555,285.190 381.599,285.194 381.916 C 285.199 382.337,285.303 382.337,285.758 381.916 C 286.065 381.632,286.234 381.265,286.134 381.100 C 286.035 380.935,286.398 380.800,286.943 380.800 C 287.488 380.800,288.024 380.575,288.135 380.300 C 288.281 379.938,288.346 379.955,288.368 380.361 C 288.390 380.743,288.647 380.638,289.170 380.035 C 289.593 379.547,290.043 379.159,290.170 379.174 C 291.132 379.284,291.609 379.139,291.400 378.800 C 291.264 378.580,291.433 378.400,291.776 378.400 C 292.119 378.400,292.400 378.220,292.400 378.000 C 292.400 377.780,292.760 377.600,293.200 377.600 C 293.640 377.600,294.000 377.420,294.000 377.200 C 294.000 376.980,294.416 376.800,294.925 376.800 C 295.433 376.800,296.204 376.469,296.638 376.065 C 297.072 375.661,297.947 375.200,298.582 375.040 C 299.217 374.881,300.180 374.402,300.722 373.975 C 301.264 373.549,301.999 373.197,302.354 373.194 C 302.917 373.189,302.923 373.138,302.400 372.800 C 301.949 372.509,302.148 372.409,303.200 372.400 C 304.252 372.391,304.451 372.291,304.000 372.000 C 303.471 371.658,303.474 371.612,304.020 371.606 C 304.842 371.598,306.793 370.680,306.797 370.300 C 306.799 370.135,306.994 370.000,307.231 370.000 C 307.469 370.000,308.354 369.280,309.200 368.400 C 310.046 367.520,311.021 366.800,311.369 366.800 C 311.716 366.800,312.000 366.620,312.000 366.400 C 312.000 366.180,312.360 366.000,312.800 366.000 C 313.240 366.000,313.600 365.820,313.600 365.600 C 313.600 365.380,313.920 365.200,314.312 365.200 C 314.703 365.200,315.283 364.840,315.600 364.400 C 315.917 363.960,316.362 363.600,316.588 363.600 C 317.365 363.599,319.271 361.693,318.717 361.471 C 318.433 361.356,318.605 361.249,319.100 361.232 C 319.595 361.214,320.003 360.975,320.006 360.700 C 320.010 360.367,320.142 360.400,320.400 360.800 C 320.714 361.285,320.789 361.228,320.794 360.500 C 320.798 359.869,321.039 359.600,321.600 359.600 C 322.040 359.600,322.400 359.420,322.400 359.200 C 322.400 358.980,322.263 358.800,322.095 358.800 C 321.926 358.800,306.313 343.320,287.398 324.400 C 268.482 305.480,252.870 290.000,252.703 290.000 C 252.536 290.000,252.400 313.220,252.400 341.600 " stroke="none" fill="#0454b4" fill-rule="evenodd"></path><path id="path2" d="M168.600 1.600 C 168.464 1.820,167.589 2.000,166.656 2.000 C 165.723 2.000,164.789 2.170,164.580 2.377 C 164.371 2.585,163.255 2.797,162.100 2.849 C 160.945 2.901,160.000 3.091,160.000 3.271 C 160.000 3.452,159.226 3.600,158.280 3.600 C 157.334 3.600,156.389 3.771,156.179 3.981 C 155.970 4.190,155.124 4.407,154.299 4.463 C 153.475 4.518,152.800 4.707,152.800 4.882 C 152.800 5.057,152.069 5.200,151.176 5.200 C 150.196 5.200,149.651 5.358,149.800 5.600 C 149.948 5.840,149.444 6.000,148.544 6.000 C 147.374 6.000,147.147 6.107,147.520 6.480 C 148.237 7.197,148.216 110.400,147.499 110.400 C 147.224 110.400,131.429 94.830,112.400 75.800 C 93.371 56.770,77.569 41.200,77.284 41.200 C 76.755 41.200,76.501 41.382,74.349 43.300 C 73.671 43.905,72.975 44.400,72.802 44.400 C 72.630 44.400,71.704 45.169,70.745 46.110 C 69.785 47.050,68.373 48.262,67.607 48.803 C 66.473 49.604,58.400 57.426,58.400 57.724 C 58.400 57.770,78.470 77.875,103.000 102.402 C 127.530 126.928,147.600 147.221,147.600 147.498 C 147.600 147.890,144.905 148.000,135.297 148.000 L 122.994 148.000 84.477 109.475 L 45.959 70.950 44.980 71.929 C 44.441 72.468,44.000 73.073,44.000 73.273 C 44.000 73.473,43.595 74.070,43.100 74.599 C 41.548 76.259,41.200 76.751,41.200 77.284 C 41.200 77.569,56.770 93.371,75.800 112.400 C 94.830 131.429,110.400 147.224,110.400 147.499 C 110.400 147.898,99.821 148.000,58.600 148.000 C 24.333 148.000,6.800 147.865,6.800 147.600 C 6.800 147.380,6.620 147.200,6.400 147.200 C 6.180 147.200,6.000 147.740,6.000 148.400 C 6.000 149.060,5.820 149.600,5.600 149.600 C 5.380 149.600,5.200 150.320,5.200 151.200 C 5.200 152.080,5.057 152.800,4.882 152.800 C 4.707 152.800,4.518 153.475,4.463 154.299 C 4.407 155.124,4.190 155.970,3.981 156.179 C 3.771 156.389,3.600 157.334,3.600 158.280 C 3.600 159.226,3.420 160.000,3.200 160.000 C 2.980 160.000,2.800 160.900,2.800 162.000 C 2.800 163.100,2.620 164.000,2.400 164.000 C 2.178 164.000,2.000 165.059,2.000 166.376 C 2.000 167.683,1.820 168.864,1.600 169.000 C 1.380 169.136,1.200 170.227,1.200 171.425 L 1.200 173.602 87.300 173.501 L 173.400 173.400 173.501 87.300 L 173.602 1.200 171.225 1.200 C 169.917 1.200,168.736 1.380,168.600 1.600 M226.800 87.400 L 226.800 173.600 312.167 173.600 C 359.119 173.600,397.819 173.491,398.167 173.357 C 398.891 173.079,399.086 169.424,398.400 169.000 C 398.180 168.864,398.000 167.784,398.000 166.600 C 398.000 165.416,397.820 164.336,397.600 164.200 C 397.380 164.064,397.200 163.063,397.200 161.976 C 397.200 160.889,397.020 160.000,396.800 160.000 C 396.580 160.000,396.400 159.201,396.400 158.224 C 396.400 157.247,396.220 156.336,396.000 156.200 C 395.780 156.064,395.600 155.243,395.600 154.376 C 395.600 153.509,395.420 152.800,395.200 152.800 C 394.980 152.800,394.800 152.181,394.800 151.424 C 394.800 150.667,394.620 149.936,394.400 149.800 C 394.180 149.664,394.000 149.124,394.000 148.600 C 394.000 148.076,393.820 147.536,393.600 147.400 C 393.380 147.264,393.200 147.343,393.200 147.576 C 393.200 147.872,377.591 148.000,341.400 148.000 C 301.331 148.000,289.600 147.891,289.600 147.519 C 289.600 147.255,305.125 131.510,324.100 112.531 C 343.075 93.552,358.649 77.703,358.710 77.312 C 358.770 76.920,358.095 75.812,357.210 74.849 C 356.324 73.887,355.600 72.962,355.600 72.794 C 355.600 72.627,354.831 71.704,353.890 70.745 C 352.950 69.785,351.756 68.398,351.237 67.663 C 350.433 66.525,342.588 58.400,342.293 58.400 C 342.237 58.400,322.125 78.470,297.598 103.000 C 273.072 127.530,252.779 147.600,252.502 147.600 C 252.110 147.600,252.000 144.905,252.000 135.297 L 252.000 122.994 290.567 84.435 C 330.289 44.721,330.216 44.800,327.405 44.800 C 327.046 44.800,326.864 44.620,327.000 44.400 C 327.136 44.180,327.048 44.000,326.805 44.000 C 326.562 44.000,325.930 43.595,325.401 43.100 C 323.741 41.548,323.249 41.200,322.716 41.200 C 322.431 41.200,306.629 56.770,287.600 75.800 C 268.571 94.830,252.776 110.400,252.501 110.400 C 252.102 110.400,252.000 99.821,252.000 58.600 C 252.000 24.333,252.135 6.800,252.400 6.800 C 252.620 6.800,252.800 6.620,252.800 6.400 C 252.800 6.180,252.260 6.000,251.600 6.000 C 250.940 6.000,250.400 5.820,250.400 5.600 C 250.400 5.380,249.680 5.200,248.800 5.200 C 247.920 5.200,247.200 5.020,247.200 4.800 C 247.200 4.580,246.491 4.400,245.624 4.400 C 244.757 4.400,243.936 4.220,243.800 4.000 C 243.664 3.780,242.753 3.600,241.776 3.600 C 240.799 3.600,240.000 3.454,240.000 3.275 C 240.000 3.096,239.145 2.906,238.100 2.853 C 237.055 2.800,236.140 2.587,236.067 2.379 C 235.993 2.170,234.879 2.000,233.590 2.000 C 232.302 2.000,231.136 1.820,231.000 1.600 C 230.864 1.380,229.863 1.200,228.776 1.200 L 226.800 1.200 226.800 87.400 M1.200 228.776 C 1.200 229.863,1.380 230.864,1.600 231.000 C 1.820 231.136,2.000 232.317,2.000 233.624 C 2.000 234.941,2.178 236.000,2.400 236.000 C 2.620 236.000,2.800 236.900,2.800 238.000 C 2.800 239.100,2.980 240.000,3.200 240.000 C 3.420 240.000,3.600 240.799,3.600 241.776 C 3.600 242.753,3.780 243.664,4.000 243.800 C 4.220 243.936,4.400 244.757,4.400 245.624 C 4.400 246.491,4.580 247.200,4.800 247.200 C 5.020 247.200,5.200 247.920,5.200 248.800 C 5.200 249.680,5.380 250.400,5.600 250.400 C 5.820 250.400,6.000 250.940,6.000 251.600 C 6.000 252.260,6.180 252.800,6.400 252.800 C 6.620 252.800,6.800 252.620,6.800 252.400 C 6.800 252.135,24.333 252.000,58.600 252.000 C 99.821 252.000,110.400 252.102,110.400 252.501 C 110.400 252.776,94.830 268.571,75.800 287.600 C 46.201 317.197,38.367 325.398,41.600 323.400 C 41.820 323.264,42.000 323.433,42.000 323.776 C 42.000 324.119,42.210 324.400,42.467 324.400 C 42.723 324.400,42.824 324.509,42.691 324.642 C 42.558 324.776,42.888 325.324,43.424 325.861 C 43.961 326.397,44.400 326.996,44.400 327.192 C 44.400 327.387,45.255 328.443,46.300 329.540 C 47.345 330.636,48.830 332.284,49.600 333.203 C 51.078 334.967,55.678 339.720,57.043 340.894 C 57.832 341.573,58.848 340.590,102.425 297.000 C 126.941 272.476,147.225 252.409,147.500 252.406 C 147.889 252.401,148.000 255.137,148.000 264.769 L 148.000 277.138 110.649 314.492 C 90.106 335.037,72.748 352.309,72.075 352.876 L 70.852 353.905 71.641 354.752 C 72.076 355.219,72.596 355.600,72.797 355.600 C 72.999 355.600,73.622 356.058,74.182 356.618 C 74.742 357.178,75.200 357.538,75.200 357.418 C 75.200 357.298,75.560 357.560,76.000 358.000 C 76.440 358.440,77.030 358.800,77.312 358.800 C 77.594 358.800,93.389 343.233,112.412 324.206 C 131.435 305.179,147.227 289.609,147.504 289.606 C 147.908 289.601,147.988 300.006,147.904 341.800 L 147.800 394.000 148.924 394.000 C 149.571 394.000,149.942 394.170,149.800 394.400 C 149.651 394.641,150.188 394.800,151.153 394.800 C 152.033 394.800,152.864 394.980,153.000 395.200 C 153.136 395.420,153.856 395.600,154.600 395.600 C 155.344 395.600,156.064 395.780,156.200 396.000 C 156.336 396.220,157.247 396.400,158.224 396.400 C 159.201 396.400,160.000 396.548,160.000 396.729 C 160.000 396.909,160.945 397.099,162.100 397.151 C 163.255 397.203,164.371 397.415,164.580 397.623 C 164.789 397.830,165.813 398.000,166.856 398.000 C 167.899 398.000,168.864 398.180,169.000 398.400 C 169.424 399.086,173.079 398.891,173.357 398.167 C 173.491 397.819,173.600 359.119,173.600 312.167 L 173.600 226.800 87.400 226.800 L 1.200 226.800 1.200 228.776 M226.800 312.800 L 226.800 398.800 228.776 398.800 C 229.863 398.800,230.864 398.620,231.000 398.400 C 231.136 398.180,232.216 398.000,233.400 398.000 C 234.584 398.000,235.664 397.820,235.800 397.600 C 235.936 397.380,236.937 397.200,238.024 397.200 C 239.111 397.200,240.000 397.020,240.000 396.800 C 240.000 396.580,240.684 396.400,241.520 396.400 C 242.356 396.400,243.211 396.230,243.420 396.021 C 243.629 395.813,244.565 395.598,245.500 395.543 C 246.435 395.488,247.200 395.299,247.200 395.122 C 247.200 394.945,247.920 394.800,248.800 394.800 C 249.680 394.800,250.400 394.620,250.400 394.400 C 250.400 394.180,250.839 394.000,251.376 394.000 C 251.913 394.000,252.464 393.820,252.600 393.600 C 252.736 393.380,252.657 393.200,252.424 393.200 C 252.128 393.200,252.000 377.591,252.000 341.400 C 252.000 300.179,252.102 289.600,252.501 289.600 C 252.776 289.600,268.571 305.170,287.600 324.200 C 306.629 343.230,322.470 358.800,322.801 358.800 C 323.133 358.800,324.169 358.080,325.103 357.200 C 326.037 356.320,326.977 355.600,327.190 355.600 C 327.404 355.600,328.352 354.835,329.297 353.900 C 330.241 352.965,331.731 351.662,332.607 351.003 C 333.809 350.100,341.600 342.507,341.600 342.239 C 341.600 342.213,321.530 322.125,297.000 297.598 C 272.470 273.072,252.400 252.779,252.400 252.502 C 252.400 252.110,255.095 252.000,264.703 252.000 L 277.006 252.000 315.575 290.577 C 353.886 328.895,354.150 329.149,354.873 328.316 C 355.273 327.855,355.600 327.323,355.600 327.135 C 355.600 326.947,356.095 326.254,356.700 325.596 C 358.582 323.547,358.800 323.249,358.800 322.718 C 358.800 322.434,343.206 306.607,324.148 287.548 C 303.578 266.977,289.607 252.712,289.771 252.447 C 290.140 251.850,393.200 251.804,393.200 252.400 C 393.200 252.620,393.380 252.800,393.600 252.800 C 393.820 252.800,394.000 252.271,394.000 251.624 C 394.000 250.977,394.180 250.336,394.400 250.200 C 394.620 250.064,394.800 249.333,394.800 248.576 C 394.800 247.819,394.943 247.200,395.118 247.200 C 395.293 247.200,395.482 246.525,395.537 245.701 C 395.593 244.876,395.810 244.030,396.019 243.821 C 396.229 243.611,396.400 242.666,396.400 241.720 C 396.400 240.774,396.580 240.000,396.800 240.000 C 397.020 240.000,397.200 239.111,397.200 238.024 C 397.200 236.937,397.380 235.936,397.600 235.800 C 397.820 235.664,398.000 234.584,398.000 233.400 C 398.000 232.216,398.180 231.136,398.400 231.000 C 398.620 230.864,398.800 229.863,398.800 228.776 L 398.800 226.800 312.800 226.800 L 226.800 226.800 226.800 312.800 " stroke="none" fill="#f3f3f3" fill-rule="evenodd"></path><path id="path3" d="M174.800 0.800 C 174.800 1.020,175.070 1.200,175.400 1.200 C 175.730 1.200,176.000 1.020,176.000 0.800 C 176.000 0.580,175.730 0.400,175.400 0.400 C 175.070 0.400,174.800 0.580,174.800 0.800 M224.000 0.800 C 224.000 1.020,224.270 1.200,224.600 1.200 C 224.930 1.200,225.200 1.020,225.200 0.800 C 225.200 0.580,224.930 0.400,224.600 0.400 C 224.270 0.400,224.000 0.580,224.000 0.800 M173.600 87.200 L 173.400 173.400 87.200 173.601 L 1.000 173.803 87.313 173.901 C 156.067 173.980,173.664 173.898,173.815 173.500 C 173.920 173.225,173.959 134.300,173.902 87.000 L 173.799 1.000 173.600 87.200 M226.000 87.120 C 226.000 153.413,226.110 173.150,226.480 173.520 C 227.026 174.066,398.800 174.245,398.800 173.700 C 398.800 173.535,360.100 173.446,312.800 173.503 L 226.800 173.605 226.800 87.403 C 226.800 30.201,226.665 1.200,226.400 1.200 C 226.135 1.200,226.000 30.107,226.000 87.120 M147.098 6.692 C 147.491 6.970,147.619 18.036,147.701 58.823 L 147.805 110.600 147.802 58.633 C 147.800 12.781,147.729 6.647,147.200 6.503 C 146.757 6.382,146.731 6.432,147.098 6.692 M252.194 58.600 C 252.194 87.200,252.242 98.841,252.300 84.469 C 252.358 70.097,252.358 46.697,252.300 32.469 C 252.242 18.241,252.194 30.000,252.194 58.600 M138.800 8.800 C 138.800 9.020,139.171 9.200,139.624 9.200 C 140.077 9.200,140.336 9.020,140.200 8.800 C 140.064 8.580,139.693 8.400,139.376 8.400 C 139.059 8.400,138.800 8.580,138.800 8.800 M309.600 31.829 C 309.600 32.127,310.675 33.200,310.975 33.200 C 311.102 33.200,310.982 32.840,310.707 32.400 C 310.238 31.649,309.600 31.320,309.600 31.829 M112.400 75.800 C 131.429 94.830,147.087 110.400,147.197 110.400 C 147.545 110.400,78.617 41.333,78.201 41.265 C 77.981 41.229,93.371 56.770,112.400 75.800 M287.001 75.965 L 252.602 110.600 287.301 76.001 C 306.385 56.971,322.000 41.356,322.000 41.301 C 322.000 40.806,317.130 45.630,287.001 75.965 M290.299 84.701 L 252.000 123.002 252.000 135.301 C 252.000 144.882,252.111 147.600,252.501 147.600 C 252.962 147.600,341.600 59.255,341.600 58.795 C 341.600 58.683,321.666 78.528,297.302 102.896 C 272.939 127.263,252.869 147.200,252.702 147.200 C 252.536 147.200,252.400 141.754,252.400 135.097 L 252.400 122.994 290.705 84.697 C 311.773 63.634,328.917 46.400,328.804 46.400 C 328.691 46.400,311.364 63.635,290.299 84.701 M102.996 102.808 C 138.238 138.053,147.276 147.296,146.800 147.602 C 146.288 147.931,146.302 147.989,146.900 147.994 C 147.285 147.997,147.600 147.775,147.600 147.501 C 147.600 147.040,59.256 58.400,58.797 58.400 C 58.684 58.400,78.574 78.384,102.996 102.808 M46.400 71.198 C 46.400 71.527,123.156 148.184,123.284 147.983 C 123.348 147.882,106.075 130.519,84.900 109.397 C 63.725 88.276,46.400 71.086,46.400 71.198 M41.265 78.300 C 41.301 78.465,56.916 94.080,75.965 112.999 L 110.600 147.398 76.001 112.699 C 41.334 77.932,41.144 77.744,41.265 78.300 M352.181 84.514 L 345.800 91.000 352.186 84.800 C 355.698 81.390,358.653 78.555,358.752 78.500 C 358.852 78.445,358.850 78.316,358.748 78.214 C 358.646 78.112,355.691 80.947,352.181 84.514 M361.200 80.967 C 361.200 81.388,362.405 82.528,362.621 82.312 C 362.722 82.211,362.444 81.802,362.002 81.402 C 361.561 81.003,361.200 80.807,361.200 80.967 M366.800 89.025 C 366.800 89.325,367.873 90.400,368.171 90.400 C 368.680 90.400,368.351 89.762,367.600 89.293 C 367.160 89.018,366.800 88.898,366.800 89.025 M368.400 91.367 C 368.400 91.788,369.605 92.928,369.821 92.712 C 369.922 92.611,369.644 92.202,369.202 91.802 C 368.761 91.403,368.400 91.207,368.400 91.367 M334.600 102.000 C 331.306 105.300,328.700 108.000,328.810 108.000 C 328.920 108.000,331.706 105.300,335.000 102.000 C 338.294 98.700,340.900 96.000,340.790 96.000 C 340.680 96.000,337.894 98.700,334.600 102.000 M316.996 119.700 L 309.800 127.000 317.100 119.804 C 321.115 115.846,324.400 112.561,324.400 112.504 C 324.400 112.219,323.681 112.918,316.996 119.700 M301.800 134.800 C 298.506 138.100,295.900 140.800,296.010 140.800 C 296.120 140.800,298.906 138.100,302.200 134.800 C 305.494 131.500,308.100 128.800,307.990 128.800 C 307.880 128.800,305.094 131.500,301.800 134.800 M32.469 147.900 C 46.697 147.958,70.097 147.958,84.469 147.900 C 98.841 147.842,87.200 147.794,58.600 147.794 C 30.000 147.794,18.241 147.842,32.469 147.900 M315.269 147.900 C 329.497 147.958,352.897 147.958,367.269 147.900 C 381.641 147.842,370.000 147.794,341.400 147.794 C 312.800 147.794,301.041 147.842,315.269 147.900 M1.200 226.400 C 1.200 226.665,30.201 226.800,87.403 226.800 L 173.605 226.800 173.503 312.800 C 173.446 360.100,173.535 398.800,173.700 398.800 C 174.245 398.800,174.066 227.026,173.520 226.480 C 172.893 225.853,1.200 225.773,1.200 226.400 M226.480 226.480 C 225.853 227.107,225.773 398.800,226.400 398.800 C 226.665 398.800,226.800 369.867,226.800 312.800 L 226.800 226.800 312.800 226.800 C 369.867 226.800,398.800 226.665,398.800 226.400 C 398.800 225.773,227.107 225.853,226.480 226.480 M32.469 252.300 C 46.697 252.358,70.097 252.358,84.469 252.300 C 98.841 252.242,87.200 252.194,58.600 252.194 C 30.000 252.194,18.241 252.242,32.469 252.300 M252.400 252.501 C 252.400 253.110,341.078 341.855,341.383 341.551 C 341.501 341.432,321.618 321.477,297.199 297.206 C 272.780 272.935,252.800 252.924,252.800 252.738 C 252.800 252.552,258.245 252.400,264.899 252.400 L 276.998 252.400 315.399 290.700 L 353.800 329.000 315.401 290.500 L 277.002 252.000 264.701 252.000 C 255.118 252.000,252.400 252.111,252.400 252.501 M289.771 252.447 C 289.535 252.829,358.360 322.174,358.669 321.864 C 358.726 321.808,343.298 306.291,324.386 287.384 C 305.474 268.476,290.000 252.871,290.000 252.705 C 290.000 252.539,313.265 252.357,341.700 252.300 L 393.400 252.197 341.724 252.098 C 304.008 252.027,289.973 252.121,289.771 252.447 M102.625 296.797 C 78.218 321.209,58.335 341.268,58.440 341.374 C 58.546 341.479,78.598 321.599,103.001 297.196 C 132.490 267.706,147.473 252.990,147.678 253.313 C 147.892 253.650,147.990 253.584,147.994 253.100 C 148.008 251.510,145.168 254.245,102.625 296.797 M75.714 287.282 C 56.747 306.246,41.275 321.808,41.331 321.865 C 41.388 321.921,56.996 306.405,76.016 287.384 C 95.036 268.363,110.509 252.800,110.399 252.801 C 110.290 252.801,94.681 268.317,75.714 287.282 M109.400 315.185 C 88.280 336.407,71.519 353.327,72.153 352.785 C 74.545 350.740,148.029 277.092,147.917 276.852 C 147.853 276.713,130.520 293.963,109.400 315.185 M147.698 341.067 C 147.644 369.484,147.496 393.064,147.370 393.467 C 147.164 394.124,147.185 394.130,147.571 393.533 C 147.876 393.062,147.973 377.639,147.900 341.133 L 147.797 289.400 147.698 341.067 M252.098 341.500 L 252.197 393.400 252.300 341.700 C 252.357 313.265,252.539 290.000,252.705 290.000 C 252.871 290.000,268.482 305.480,287.398 324.400 C 306.313 343.320,321.881 358.800,321.994 358.800 C 322.106 358.800,306.629 343.230,287.600 324.200 C 268.571 305.170,252.776 289.600,252.501 289.600 C 252.102 289.600,252.020 300.146,252.098 341.500 M134.600 302.000 C 131.306 305.300,128.700 308.000,128.810 308.000 C 128.920 308.000,131.706 305.300,135.000 302.000 C 138.294 298.700,140.900 296.000,140.790 296.000 C 140.680 296.000,137.894 298.700,134.600 302.000 M32.202 310.402 C 32.602 310.844,33.011 311.122,33.112 311.021 C 33.328 310.805,32.188 309.600,31.767 309.600 C 31.607 309.600,31.803 309.961,32.202 310.402 M118.200 318.400 C 114.906 321.700,112.300 324.400,112.410 324.400 C 112.520 324.400,115.306 321.700,118.600 318.400 C 121.894 315.100,124.500 312.400,124.390 312.400 C 124.280 312.400,121.494 315.100,118.200 318.400 M101.800 334.800 C 98.506 338.100,95.900 340.800,96.010 340.800 C 96.120 340.800,98.906 338.100,102.200 334.800 C 105.494 331.500,108.100 328.800,107.990 328.800 C 107.880 328.800,105.094 331.500,101.800 334.800 M84.600 352.000 C 81.306 355.300,78.700 358.000,78.810 358.000 C 78.920 358.000,81.706 355.300,85.000 352.000 C 88.294 348.700,90.900 346.000,90.790 346.000 C 90.680 346.000,87.894 348.700,84.600 352.000 M78.832 359.820 C 78.795 360.303,79.606 361.200,80.080 361.200 C 80.256 361.200,80.400 361.020,80.400 360.800 C 80.400 360.580,80.145 360.400,79.833 360.400 C 79.522 360.400,79.176 360.175,79.065 359.900 C 78.954 359.625,78.849 359.589,78.832 359.820 M88.800 367.029 C 88.800 367.453,90.036 368.497,90.267 368.267 C 90.392 368.141,90.217 367.760,89.876 367.419 C 89.241 366.784,88.800 366.624,88.800 367.029 M310.100 367.398 C 309.357 368.242,309.494 368.473,310.400 367.907 C 310.840 367.632,311.200 367.271,311.200 367.104 C 311.200 366.627,310.649 366.775,310.100 367.398 M91.200 368.704 C 91.200 368.871,91.560 369.232,92.000 369.507 C 92.930 370.088,93.054 369.797,92.229 368.971 C 91.598 368.341,91.200 368.237,91.200 368.704 M99.000 373.600 C 99.136 373.820,99.507 374.000,99.824 374.000 C 100.141 374.000,100.400 374.210,100.400 374.467 C 100.400 374.723,100.535 374.799,100.699 374.634 C 100.864 374.469,100.650 374.079,100.223 373.767 C 99.325 373.111,98.640 373.017,99.000 373.600 " stroke="none" fill="#e390a0" fill-rule="evenodd"></path><path id="path4" d="M183.400 0.400 C 183.689 0.868,188.940 0.868,190.400 0.400 C 191.050 0.192,189.959 0.066,187.276 0.040 C 184.620 0.014,183.241 0.142,183.400 0.400 M209.800 0.400 C 211.598 0.857,216.317 0.857,216.600 0.400 C 216.759 0.142,215.382 0.017,212.724 0.047 C 209.963 0.079,208.997 0.196,209.800 0.400 M176.000 1.000 C 176.000 1.633,177.435 1.794,179.100 1.348 C 180.678 0.925,180.068 0.400,178.000 0.400 C 176.489 0.400,176.000 0.547,176.000 1.000 M220.000 0.753 C 220.000 1.181,221.399 1.587,222.900 1.595 C 223.614 1.598,224.000 1.389,224.000 1.000 C 224.000 0.547,223.511 0.400,222.000 0.400 C 220.900 0.400,220.000 0.559,220.000 0.753 M174.000 87.400 L 173.800 173.800 87.400 174.001 L 1.000 174.203 87.513 174.301 C 156.427 174.380,174.064 174.298,174.215 173.900 C 174.320 173.625,174.359 134.610,174.302 87.200 L 174.199 1.000 174.000 87.400 M225.699 87.220 C 225.623 153.857,225.709 173.549,226.080 173.920 C 226.451 174.291,246.143 174.377,312.780 174.301 L 399.000 174.202 313.040 174.100 C 250.396 174.026,226.934 173.877,226.541 173.551 C 226.092 173.179,225.985 158.631,225.900 87.052 L 225.798 1.000 225.699 87.220 M290.705 84.697 C 269.637 105.761,252.400 123.087,252.400 123.200 C 252.400 123.313,269.540 106.265,290.489 85.315 L 328.578 47.225 329.568 47.874 C 330.113 48.231,330.993 48.957,331.524 49.487 C 332.054 50.018,332.736 50.357,333.039 50.240 C 333.342 50.124,333.548 50.247,333.495 50.514 C 333.443 50.781,333.638 50.951,333.930 50.890 C 334.221 50.830,334.361 50.940,334.240 51.136 C 334.119 51.332,335.557 52.965,337.437 54.766 C 339.316 56.567,340.793 58.222,340.719 58.443 C 340.645 58.665,320.709 78.726,296.416 103.023 C 272.124 127.321,252.419 147.200,252.627 147.200 C 253.065 147.200,341.600 58.737,341.600 58.299 C 341.600 57.576,333.010 48.800,332.302 48.800 C 332.093 48.800,331.417 48.260,330.800 47.600 C 330.183 46.940,329.528 46.400,329.344 46.400 C 329.160 46.400,311.773 63.634,290.705 84.697 M53.376 62.652 C 51.063 64.991,49.259 66.992,49.367 67.101 C 49.475 67.209,48.843 67.990,47.962 68.837 C 46.669 70.079,46.436 70.514,46.755 71.088 C 46.973 71.480,64.307 88.900,85.276 109.800 L 123.400 147.800 85.269 109.568 L 47.137 71.336 48.266 69.968 C 48.887 69.216,49.631 68.352,49.920 68.048 C 50.210 67.745,50.352 67.252,50.237 66.953 C 50.123 66.654,50.194 66.452,50.395 66.505 C 50.596 66.557,52.478 64.903,54.576 62.829 C 56.674 60.755,58.479 59.135,58.586 59.229 C 58.694 59.323,78.676 79.280,102.991 103.577 C 127.306 127.874,147.200 147.583,147.200 147.375 C 147.200 146.797,58.665 58.400,58.087 58.400 C 57.809 58.400,55.690 60.313,53.376 62.652 M129.324 147.899 C 132.583 147.967,137.803 147.966,140.924 147.899 C 144.046 147.831,141.380 147.776,135.000 147.777 C 128.620 147.777,126.066 147.832,129.324 147.899 M398.803 175.993 C 398.276 177.265,398.560 180.000,399.218 180.000 C 399.428 180.000,399.600 178.830,399.600 177.400 C 399.600 174.470,399.504 174.300,398.803 175.993 M0.400 178.000 C 0.400 179.955,0.873 180.630,1.357 179.367 C 1.847 178.092,1.625 176.000,1.000 176.000 C 0.547 176.000,0.400 176.489,0.400 178.000 M0.300 183.830 C 0.135 183.997,0.018 185.768,0.040 187.767 C 0.075 190.950,0.127 191.202,0.456 189.800 C 0.880 187.991,0.759 183.367,0.300 183.830 M399.432 187.500 C 399.794 192.118,400.000 192.179,400.000 187.667 C 400.000 185.368,399.843 184.000,399.579 184.000 C 399.296 184.000,399.248 185.144,399.432 187.500 M0.047 212.500 C 0.019 214.865,0.157 216.400,0.400 216.400 C 0.862 216.400,0.862 211.615,0.400 209.800 C 0.192 208.983,0.080 209.845,0.047 212.500 M399.430 212.255 C 399.245 214.527,399.295 215.855,399.575 216.135 C 399.875 216.435,400.000 215.421,400.000 212.680 C 400.000 207.879,399.797 207.728,399.430 212.255 M0.479 222.100 C 0.546 223.255,0.780 224.165,1.000 224.121 C 1.559 224.011,1.719 222.959,1.419 221.360 C 1.016 219.213,0.343 219.742,0.479 222.100 M398.614 221.518 C 398.382 222.892,398.868 225.200,399.390 225.200 C 399.506 225.200,399.600 224.030,399.600 222.600 C 399.600 219.751,399.020 219.114,398.614 221.518 M87.052 225.900 C 158.631 225.985,173.179 226.092,173.551 226.541 C 173.877 226.934,174.026 250.396,174.100 313.040 L 174.202 399.000 174.301 312.780 C 174.377 246.143,174.291 226.451,173.920 226.080 C 173.549 225.709,153.857 225.623,87.220 225.699 L 1.000 225.798 87.052 225.900 M226.080 226.080 C 225.709 226.451,225.623 246.143,225.699 312.780 L 225.798 399.000 225.900 312.948 C 225.985 241.369,226.092 226.821,226.541 226.449 C 226.934 226.123,250.396 225.974,313.040 225.900 L 399.000 225.798 312.780 225.699 C 246.143 225.623,226.451 225.709,226.080 226.080 M252.800 252.738 C 252.800 253.091,341.413 341.314,341.968 341.514 C 342.373 341.660,351.200 332.882,351.200 332.333 C 351.200 332.106,351.740 331.417,352.400 330.800 C 353.060 330.183,353.600 329.526,353.600 329.339 C 353.600 329.152,336.275 311.719,315.100 290.599 L 276.600 252.200 314.752 290.453 C 342.542 318.316,352.813 328.855,352.567 329.253 C 352.382 329.554,351.909 330.160,351.516 330.600 C 351.123 331.040,349.857 332.465,348.701 333.767 C 345.586 337.278,342.089 340.800,341.720 340.800 C 341.541 340.800,321.508 320.910,297.202 296.600 C 251.612 251.004,252.800 252.177,252.800 252.738 M102.999 297.198 C 78.580 321.617,58.546 341.763,58.478 341.967 C 58.332 342.403,67.105 351.200,67.685 351.200 C 67.902 351.200,68.583 351.740,69.200 352.400 C 69.817 353.060,70.474 353.600,70.661 353.600 C 70.848 353.600,88.281 336.275,109.401 315.100 L 147.800 276.600 109.541 314.758 L 71.282 352.917 69.268 351.218 C 68.039 350.182,67.063 349.637,66.765 349.822 C 66.482 349.997,66.379 349.957,66.521 349.728 C 66.655 349.510,65.063 347.673,62.983 345.646 C 60.902 343.618,59.200 341.833,59.200 341.680 C 59.200 341.527,79.135 321.466,103.499 297.101 C 127.864 272.735,147.708 252.800,147.597 252.800 C 147.486 252.800,127.417 272.779,102.999 297.198 M147.777 265.000 C 147.777 271.380,147.832 273.934,147.899 270.676 C 147.967 267.417,147.966 262.197,147.899 259.076 C 147.831 255.954,147.776 258.620,147.777 265.000 M176.300 398.676 C 174.823 399.062,175.697 399.600,177.800 399.600 C 180.197 399.600,180.747 399.049,178.750 398.650 C 177.433 398.387,177.405 398.387,176.300 398.676 M220.900 398.682 C 219.001 399.048,220.121 399.599,222.700 399.568 C 225.315 399.536,225.362 399.518,224.200 398.986 C 222.973 398.424,222.478 398.378,220.900 398.682 M184.000 399.599 C 183.590 399.865,184.654 399.990,187.367 399.994 C 189.548 399.997,191.258 399.935,191.167 399.855 C 190.729 399.474,184.535 399.253,184.000 399.599 M211.000 399.600 C 208.787 399.845,208.906 399.871,212.524 399.933 C 215.054 399.976,216.359 399.858,216.200 399.600 C 215.937 399.174,214.848 399.174,211.000 399.600 " stroke="none" fill="#e3667a" fill-rule="evenodd"></path></g></svg>